<svg xmlns="http://www.w3.org/2000/svg" xmlns:xlink="http://www.w3.org/1999/xlink" width="500" zoomAndPan="magnify" viewBox="0 0 375 374.999991" height="500" preserveAspectRatio="xMidYMid meet" version="1.0"><defs><clipPath id="354a179d34"><path d="M 1 50.867188 L 374 50.867188 L 374 213 L 1 213 Z M 1 50.867188 " clip-rule="nonzero"/></clipPath><clipPath id="cf9a137397"><path d="M 22 236 L 59 236 L 59 343.367188 L 22 343.367188 Z M 22 236 " clip-rule="nonzero"/></clipPath><clipPath id="59491e7dde"><path d="M 95 236 L 133 236 L 133 343.367188 L 95 343.367188 Z M 95 236 " clip-rule="nonzero"/></clipPath><clipPath id="3458c49d6f"><path d="M 169 236 L 206 236 L 206 343.367188 L 169 343.367188 Z M 169 236 " clip-rule="nonzero"/></clipPath><clipPath id="8c096176e9"><path d="M 242 236 L 280 236 L 280 343.367188 L 242 343.367188 Z M 242 236 " clip-rule="nonzero"/></clipPath><clipPath id="14c99e2853"><path d="M 316 236 L 353 236 L 353 343.367188 L 316 343.367188 Z M 316 236 " clip-rule="nonzero"/></clipPath></defs><g clip-path="url(#354a179d34)"><path fill="#ffffff" d="M 329.839844 50.804688 L 45.160156 50.804688 C 21.140625 50.804688 1.535156 70.347656 1.535156 94.425781 L 1.535156 168.496094 C 1.535156 192.515625 21.078125 212.121094 45.160156 212.121094 L 329.839844 212.121094 C 353.859375 212.121094 373.464844 192.578125 373.464844 168.496094 L 373.464844 94.363281 C 373.464844 70.347656 353.921875 50.804688 329.839844 50.804688 Z M 304.121094 193.144531 L 70.878906 193.144531 L 70.878906 175.746094 L 304.121094 175.746094 Z M 304.121094 193.144531 " fill-opacity="1" fill-rule="nonzero"/></g><g clip-path="url(#cf9a137397)"><path fill="#ffffff" d="M 46.546875 268.226562 C 51.398438 264.191406 58.710938 258.074219 58.710938 246.351562 C 58.710938 241.117188 54.488281 236.894531 49.257812 236.894531 C 44.023438 236.894531 39.800781 241.117188 39.800781 246.351562 C 39.800781 248.933594 38.726562 250.132812 34.441406 253.664062 C 29.585938 257.699219 22.273438 263.8125 22.273438 275.539062 C 22.273438 287.261719 29.585938 293.378906 34.441406 297.410156 C 38.726562 301.003906 39.800781 302.140625 39.800781 304.722656 C 39.800781 307.308594 38.726562 308.507812 34.441406 312.101562 C 29.585938 316.132812 22.273438 322.25 22.273438 333.972656 C 22.273438 339.207031 26.5 343.429688 31.730469 343.429688 C 36.964844 343.429688 41.1875 339.207031 41.1875 333.972656 C 41.1875 331.390625 42.257812 330.191406 46.546875 326.597656 C 51.398438 322.5625 58.710938 316.449219 58.710938 304.722656 C 58.710938 293 51.398438 286.882812 46.546875 282.851562 C 42.257812 279.257812 41.1875 278.121094 41.1875 275.472656 C 41.1875 272.953125 42.257812 271.816406 46.546875 268.226562 Z M 46.546875 268.226562 " fill-opacity="1" fill-rule="nonzero"/></g><g clip-path="url(#59491e7dde)"><path fill="#ffffff" d="M 120.046875 268.226562 C 124.902344 264.191406 132.214844 258.074219 132.214844 246.351562 C 132.214844 241.117188 127.992188 236.894531 122.757812 236.894531 C 117.527344 236.894531 113.304688 241.117188 113.304688 246.351562 C 113.304688 248.933594 112.230469 250.132812 107.945312 253.664062 C 103.089844 257.699219 95.777344 263.8125 95.777344 275.539062 C 95.777344 287.261719 103.089844 293.378906 107.945312 297.410156 C 112.230469 301.003906 113.304688 302.140625 113.304688 304.722656 C 113.304688 307.308594 112.230469 308.507812 107.945312 312.101562 C 103.089844 316.132812 95.777344 322.25 95.777344 333.972656 C 95.777344 339.207031 100.003906 343.429688 105.234375 343.429688 C 110.464844 343.429688 114.691406 339.207031 114.691406 333.972656 C 114.691406 331.390625 115.761719 330.191406 120.046875 326.597656 C 124.902344 322.5625 132.214844 316.449219 132.214844 304.722656 C 132.214844 293 124.902344 286.882812 120.046875 282.851562 C 115.761719 279.257812 114.691406 278.121094 114.691406 275.472656 C 114.691406 272.953125 115.761719 271.816406 120.046875 268.226562 Z M 120.046875 268.226562 " fill-opacity="1" fill-rule="nonzero"/></g><g clip-path="url(#3458c49d6f)"><path fill="#ffffff" d="M 193.550781 268.226562 C 198.40625 264.191406 205.71875 258.074219 205.71875 246.351562 C 205.71875 241.117188 201.496094 236.894531 196.261719 236.894531 C 191.03125 236.894531 186.804688 241.117188 186.804688 246.351562 C 186.804688 248.933594 185.734375 250.132812 181.449219 253.664062 C 176.59375 257.699219 169.28125 263.8125 169.28125 275.539062 C 169.28125 287.261719 176.59375 293.378906 181.449219 297.410156 C 185.734375 300.941406 186.804688 302.140625 186.804688 304.722656 C 186.804688 307.308594 185.734375 308.507812 181.449219 312.101562 C 176.59375 316.132812 169.28125 322.25 169.28125 333.972656 C 169.28125 339.207031 173.503906 343.429688 178.738281 343.429688 C 183.96875 343.429688 188.195312 339.207031 188.195312 333.972656 C 188.195312 331.390625 189.265625 330.191406 193.550781 326.597656 C 198.40625 322.5625 205.71875 316.449219 205.71875 304.722656 C 205.71875 293 198.40625 286.882812 193.550781 282.851562 C 189.265625 279.257812 188.195312 278.121094 188.195312 275.472656 C 188.195312 272.953125 189.265625 271.816406 193.550781 268.226562 Z M 193.550781 268.226562 " fill-opacity="1" fill-rule="nonzero"/></g><g clip-path="url(#8c096176e9)"><path fill="#ffffff" d="M 267.054688 268.226562 C 271.910156 264.191406 279.222656 258.074219 279.222656 246.351562 C 279.222656 241.117188 274.996094 236.894531 269.765625 236.894531 C 264.535156 236.894531 260.308594 241.117188 260.308594 246.351562 C 260.308594 248.933594 259.238281 250.132812 254.953125 253.664062 C 250.097656 257.699219 242.785156 263.8125 242.785156 275.539062 C 242.785156 287.261719 250.097656 293.378906 254.953125 297.410156 C 259.238281 301.003906 260.308594 302.140625 260.308594 304.722656 C 260.308594 307.308594 259.238281 308.507812 254.953125 312.101562 C 250.097656 316.132812 242.785156 322.25 242.785156 333.972656 C 242.785156 339.207031 247.007812 343.429688 252.242188 343.429688 C 257.472656 343.429688 261.695312 339.207031 261.695312 333.972656 C 261.695312 331.390625 262.769531 330.191406 267.054688 326.597656 C 271.910156 322.5625 279.222656 316.449219 279.222656 304.722656 C 279.222656 293 271.910156 286.882812 267.054688 282.851562 C 262.769531 279.257812 261.695312 278.121094 261.695312 275.472656 C 261.695312 272.953125 262.769531 271.816406 267.054688 268.226562 Z M 267.054688 268.226562 " fill-opacity="1" fill-rule="nonzero"/></g><g clip-path="url(#14c99e2853)"><path fill="#ffffff" d="M 340.558594 268.226562 C 345.414062 264.191406 352.726562 258.074219 352.726562 246.351562 C 352.726562 241.117188 348.5 236.894531 343.269531 236.894531 C 338.035156 236.894531 333.8125 241.117188 333.8125 246.351562 C 333.8125 248.933594 332.742188 250.132812 328.453125 253.664062 C 323.601562 257.699219 316.289062 263.8125 316.289062 275.539062 C 316.289062 287.261719 323.601562 293.378906 328.453125 297.410156 C 332.742188 301.003906 333.8125 302.140625 333.8125 304.722656 C 333.8125 307.308594 332.742188 308.507812 328.453125 312.101562 C 323.601562 316.132812 316.289062 322.25 316.289062 333.972656 C 316.289062 339.207031 320.511719 343.429688 325.742188 343.429688 C 330.976562 343.429688 335.199219 339.207031 335.199219 333.972656 C 335.199219 331.390625 336.273438 330.191406 340.558594 326.597656 C 345.414062 322.5625 352.726562 316.449219 352.726562 304.722656 C 352.726562 293 345.414062 286.882812 340.558594 282.851562 C 336.273438 279.257812 335.199219 278.121094 335.199219 275.472656 C 335.199219 272.953125 336.273438 271.816406 340.558594 268.226562 Z M 340.558594 268.226562 " fill-opacity="1" fill-rule="nonzero"/></g></svg>