<svg xmlns="http://www.w3.org/2000/svg" xmlns:xlink="http://www.w3.org/1999/xlink" width="500" zoomAndPan="magnify" viewBox="0 0 375 374.999991" height="500" preserveAspectRatio="xMidYMid meet" version="1.0"><defs><clipPath id="078eba0b09"><path d="M 0 59.183594 L 375 59.183594 L 375 320.183594 L 0 320.183594 Z M 0 59.183594 " clip-rule="nonzero"/></clipPath></defs><g clip-path="url(#078eba0b09)"><path fill="#000000" d="M 374.84375 241.085938 L 374.84375 300.9375 C 374.84375 311.582031 366.210938 320.210938 355.5625 320.210938 L 19.429688 320.210938 C 8.78125 320.210938 0.148438 311.582031 0.148438 300.9375 L 0.148438 241.085938 C 0.148438 213.605469 18.953125 190.515625 44.40625 183.96875 L 297.195312 183.96875 C 307.1875 183.96875 317.261719 184.300781 327.277344 184.140625 C 328.488281 184.121094 329.691406 184.09375 330.898438 184.058594 C 356.191406 190.710938 374.84375 213.71875 374.84375 241.085938 Z M 75.078125 172.722656 L 75.078125 147.875 C 75.078125 136.96875 83.921875 128.128906 94.835938 128.128906 L 160.203125 128.128906 C 171.113281 128.128906 179.960938 136.96875 179.960938 147.875 L 179.960938 172.722656 L 195.03125 172.722656 L 195.03125 147.875 C 195.03125 136.96875 203.878906 128.128906 214.789062 128.128906 L 280.15625 128.128906 C 291.070312 128.128906 299.914062 136.96875 299.914062 147.875 L 299.914062 172.722656 L 327.277344 172.722656 L 327.277344 85.300781 C 327.277344 70.875 315.582031 59.183594 301.148438 59.183594 L 73.84375 59.183594 C 59.410156 59.183594 47.714844 70.875 47.714844 85.300781 L 47.714844 172.5 C 55.355469 172.523438 63.011719 172.722656 70.621094 172.722656 Z M 75.078125 172.722656 " fill-opacity="1" fill-rule="nonzero"/></g></svg>