<svg xmlns="http://www.w3.org/2000/svg" xmlns:xlink="http://www.w3.org/1999/xlink" width="500" zoomAndPan="magnify" viewBox="0 0 375 374.999991" height="500" preserveAspectRatio="xMidYMid meet" version="1.0"><path fill="#ffffff" d="M 85.007812 0.136719 L 291.457031 0.136719 C 338.210938 0.136719 376.464844 38.390625 376.464844 85.144531 L 376.464844 289.855469 C 376.464844 336.613281 338.210938 374.863281 291.457031 374.863281 L 211.039062 374.863281 L 211.039062 244.839844 L 261.957031 244.839844 L 272.519531 187.320312 L 211.039062 187.320312 L 211.039062 166.976562 C 211.039062 136.582031 222.960938 124.890625 253.828125 124.890625 C 263.414062 124.890625 271.128906 125.121094 275.574219 125.589844 L 275.574219 73.449219 C 267.15625 71.109375 246.578125 68.769531 234.652344 68.769531 C 171.753906 68.769531 142.761719 98.464844 142.761719 162.535156 L 142.761719 187.320312 L 103.945312 187.320312 L 103.945312 244.839844 L 142.761719 244.839844 L 142.761719 374.863281 L 85.007812 374.863281 C 38.253906 374.863281 0 336.613281 0 289.855469 L 0 85.144531 C 0 38.390625 38.253906 0.136719 85.007812 0.136719 Z M 85.007812 0.136719 " fill-opacity="1" fill-rule="evenodd"/></svg>