<svg xmlns="http://www.w3.org/2000/svg" xmlns:xlink="http://www.w3.org/1999/xlink" width="500" zoomAndPan="magnify" viewBox="0 0 375 374.999991" height="500" preserveAspectRatio="xMidYMid meet" version="1.0"><defs><clipPath id="ee91ef9169"><path d="M 7 14 L 368 14 L 368 361.703125 L 7 361.703125 Z M 7 14 " clip-rule="nonzero"/></clipPath></defs><g clip-path="url(#ee91ef9169)"><path fill="#ffffff" d="M 362.496094 170.179688 C 309.378906 120.21875 256.308594 70.277344 203.28125 20.363281 C 202.785156 19.910156 202.269531 19.484375 201.734375 19.082031 C 201.199219 18.679688 200.648438 18.300781 200.078125 17.949219 C 199.507812 17.597656 198.925781 17.273438 198.328125 16.972656 C 197.726562 16.675781 197.117188 16.40625 196.492188 16.164062 C 195.867188 15.921875 195.234375 15.707031 194.589844 15.523438 C 193.949219 15.339844 193.296875 15.183594 192.640625 15.058594 C 191.980469 14.933594 191.320312 14.839844 190.652344 14.777344 C 189.988281 14.710938 189.320312 14.679688 188.652344 14.675781 C 187.980469 14.671875 187.3125 14.699219 186.648438 14.757812 C 185.980469 14.816406 185.316406 14.90625 184.660156 15.027344 C 184 15.144531 183.347656 15.292969 182.703125 15.472656 C 182.058594 15.652344 181.421875 15.859375 180.796875 16.097656 C 180.171875 16.335938 179.558594 16.601562 178.957031 16.894531 C 178.355469 17.1875 177.765625 17.507812 177.195312 17.855469 C 176.625 18.203125 176.066406 18.574219 175.53125 18.972656 C 174.992188 19.371094 174.472656 19.792969 173.972656 20.238281 L 11.859375 170.109375 C 1.105469 179.964844 9.992188 195.484375 26.417969 195.484375 L 41.230469 195.484375 L 41.230469 346.78125 C 41.292969 347.796875 41.453125 348.792969 41.710938 349.777344 C 41.96875 350.761719 42.320312 351.710938 42.761719 352.628906 C 43.207031 353.542969 43.734375 354.40625 44.347656 355.21875 C 44.960938 356.03125 45.644531 356.777344 46.402344 357.453125 C 47.160156 358.132812 47.980469 358.730469 48.855469 359.246094 C 49.730469 359.765625 50.648438 360.195312 51.605469 360.53125 C 52.566406 360.871094 53.550781 361.113281 54.554688 361.257812 C 55.5625 361.40625 56.574219 361.453125 57.589844 361.398438 L 316.636719 361.398438 C 317.65625 361.449219 318.671875 361.398438 319.679688 361.25 C 320.691406 361.101562 321.675781 360.855469 322.640625 360.515625 C 323.601562 360.175781 324.519531 359.742188 325.398438 359.222656 C 326.277344 358.703125 327.097656 358.101562 327.855469 357.421875 C 328.617188 356.742188 329.304688 355.992188 329.921875 355.179688 C 330.535156 354.363281 331.066406 353.5 331.511719 352.582031 C 331.960938 351.664062 332.3125 350.710938 332.574219 349.722656 C 332.832031 348.738281 332.996094 347.734375 333.0625 346.714844 L 333.0625 195.492188 L 347.8125 195.492188 C 364.171875 195.492188 373.058594 180.164062 362.496094 170.179688 Z M 272.125 351.035156 L 102.171875 351.035156 C 101.808594 351.039062 101.449219 351.003906 101.089844 350.933594 C 100.730469 350.859375 100.386719 350.757812 100.046875 350.617188 C 99.710938 350.476562 99.390625 350.308594 99.089844 350.105469 C 98.785156 349.902344 98.503906 349.671875 98.246094 349.414062 C 97.988281 349.15625 97.757812 348.878906 97.554688 348.574219 C 97.355469 348.273438 97.183594 347.953125 97.042969 347.617188 C 96.902344 347.277344 96.796875 346.929688 96.726562 346.574219 C 96.65625 346.21875 96.621094 345.855469 96.621094 345.492188 L 96.621094 326.960938 C 96.621094 326.597656 96.65625 326.234375 96.726562 325.878906 C 96.796875 325.519531 96.902344 325.171875 97.042969 324.835938 C 97.183594 324.5 97.355469 324.179688 97.554688 323.878906 C 97.757812 323.574219 97.988281 323.292969 98.246094 323.035156 C 98.503906 322.777344 98.785156 322.546875 99.089844 322.34375 C 99.390625 322.144531 99.710938 321.972656 100.046875 321.832031 C 100.386719 321.691406 100.730469 321.585938 101.089844 321.515625 C 101.445312 321.445312 101.808594 321.410156 102.171875 321.410156 L 272.125 321.410156 C 272.488281 321.410156 272.851562 321.445312 273.207031 321.515625 C 273.566406 321.585938 273.914062 321.691406 274.25 321.832031 C 274.585938 321.972656 274.90625 322.144531 275.207031 322.34375 C 275.511719 322.546875 275.792969 322.777344 276.046875 323.035156 C 276.304688 323.292969 276.535156 323.574219 276.738281 323.878906 C 276.941406 324.179688 277.113281 324.5 277.25 324.835938 C 277.390625 325.175781 277.496094 325.519531 277.566406 325.878906 C 277.636719 326.234375 277.671875 326.597656 277.671875 326.960938 L 277.671875 345.492188 C 277.671875 345.855469 277.636719 346.214844 277.566406 346.574219 C 277.496094 346.929688 277.390625 347.277344 277.25 347.613281 C 277.109375 347.953125 276.941406 348.269531 276.738281 348.574219 C 276.535156 348.875 276.304688 349.15625 276.046875 349.414062 C 275.789062 349.671875 275.511719 349.902344 275.207031 350.105469 C 274.90625 350.308594 274.585938 350.476562 274.25 350.617188 C 273.910156 350.757812 273.566406 350.859375 273.207031 350.929688 C 272.851562 351.003906 272.488281 351.039062 272.125 351.035156 Z M 272.125 309.878906 L 102.171875 309.878906 C 101.808594 309.882812 101.449219 309.847656 101.089844 309.773438 C 100.730469 309.703125 100.386719 309.597656 100.046875 309.460938 C 99.710938 309.320312 99.390625 309.152344 99.089844 308.949219 C 98.785156 308.746094 98.503906 308.515625 98.246094 308.257812 C 97.988281 308 97.757812 307.722656 97.554688 307.417969 C 97.355469 307.113281 97.183594 306.796875 97.042969 306.457031 C 96.902344 306.121094 96.796875 305.773438 96.726562 305.417969 C 96.65625 305.058594 96.621094 304.699219 96.621094 304.335938 L 96.621094 285.804688 C 96.621094 285.441406 96.65625 285.078125 96.726562 284.722656 C 96.796875 284.363281 96.902344 284.015625 97.042969 283.679688 C 97.183594 283.34375 97.355469 283.023438 97.554688 282.71875 C 97.757812 282.417969 97.988281 282.136719 98.246094 281.878906 C 98.503906 281.621094 98.785156 281.390625 99.089844 281.1875 C 99.390625 280.984375 99.710938 280.816406 100.046875 280.675781 C 100.386719 280.535156 100.730469 280.429688 101.089844 280.359375 C 101.445312 280.289062 101.808594 280.253906 102.171875 280.253906 L 272.125 280.253906 C 272.488281 280.253906 272.851562 280.289062 273.207031 280.359375 C 273.566406 280.429688 273.914062 280.535156 274.25 280.675781 C 274.585938 280.816406 274.90625 280.988281 275.207031 281.1875 C 275.511719 281.390625 275.792969 281.621094 276.046875 281.878906 C 276.304688 282.136719 276.535156 282.417969 276.738281 282.722656 C 276.941406 283.023438 277.113281 283.34375 277.25 283.679688 C 277.390625 284.019531 277.496094 284.363281 277.566406 284.722656 C 277.636719 285.078125 277.671875 285.441406 277.671875 285.804688 L 277.671875 304.335938 C 277.671875 304.699219 277.636719 305.058594 277.5625 305.417969 C 277.492188 305.773438 277.386719 306.121094 277.25 306.457031 C 277.109375 306.792969 276.9375 307.113281 276.734375 307.414062 C 276.535156 307.71875 276.304688 307.996094 276.046875 308.253906 C 275.789062 308.511719 275.507812 308.742188 275.207031 308.941406 C 274.902344 309.144531 274.582031 309.316406 274.246094 309.453125 C 273.910156 309.59375 273.5625 309.699219 273.207031 309.769531 C 272.851562 309.839844 272.488281 309.875 272.125 309.875 Z M 272.125 268.722656 L 102.171875 268.722656 C 101.808594 268.722656 101.449219 268.6875 101.089844 268.617188 C 100.730469 268.546875 100.386719 268.441406 100.046875 268.304688 C 99.710938 268.164062 99.390625 267.992188 99.089844 267.792969 C 98.785156 267.589844 98.503906 267.359375 98.246094 267.101562 C 97.988281 266.84375 97.757812 266.5625 97.554688 266.261719 C 97.355469 265.957031 97.183594 265.640625 97.042969 265.300781 C 96.902344 264.964844 96.796875 264.617188 96.726562 264.261719 C 96.65625 263.902344 96.621094 263.542969 96.621094 263.179688 L 96.621094 244.648438 C 96.621094 244.285156 96.65625 243.921875 96.726562 243.566406 C 96.796875 243.207031 96.902344 242.859375 97.042969 242.523438 C 97.183594 242.1875 97.355469 241.867188 97.554688 241.5625 C 97.757812 241.261719 97.988281 240.980469 98.246094 240.722656 C 98.503906 240.464844 98.785156 240.234375 99.089844 240.03125 C 99.390625 239.828125 99.710938 239.660156 100.046875 239.519531 C 100.386719 239.378906 100.730469 239.273438 101.089844 239.203125 C 101.445312 239.132812 101.808594 239.097656 102.171875 239.097656 L 272.125 239.097656 C 272.488281 239.097656 272.851562 239.132812 273.207031 239.203125 C 273.566406 239.273438 273.914062 239.378906 274.25 239.519531 C 274.585938 239.660156 274.90625 239.828125 275.207031 240.03125 C 275.511719 240.234375 275.792969 240.464844 276.046875 240.722656 C 276.304688 240.980469 276.535156 241.261719 276.738281 241.5625 C 276.941406 241.867188 277.113281 242.1875 277.25 242.523438 C 277.390625 242.859375 277.496094 243.207031 277.566406 243.566406 C 277.636719 243.921875 277.671875 244.285156 277.671875 244.648438 L 277.671875 263.179688 C 277.671875 263.542969 277.636719 263.902344 277.566406 264.261719 C 277.496094 264.617188 277.390625 264.964844 277.25 265.300781 C 277.109375 265.636719 276.941406 265.957031 276.738281 266.261719 C 276.535156 266.5625 276.304688 266.84375 276.046875 267.101562 C 275.789062 267.359375 275.511719 267.589844 275.207031 267.792969 C 274.90625 267.992188 274.585938 268.164062 274.25 268.304688 C 273.910156 268.441406 273.566406 268.546875 273.207031 268.617188 C 272.851562 268.6875 272.488281 268.722656 272.125 268.722656 Z M 272.125 227.566406 L 102.171875 227.566406 C 101.808594 227.566406 101.449219 227.53125 101.089844 227.460938 C 100.730469 227.390625 100.386719 227.285156 100.046875 227.148438 C 99.710938 227.007812 99.390625 226.835938 99.089844 226.636719 C 98.785156 226.433594 98.503906 226.203125 98.246094 225.945312 C 97.988281 225.6875 97.757812 225.40625 97.554688 225.105469 C 97.355469 224.800781 97.183594 224.480469 97.042969 224.144531 C 96.902344 223.808594 96.796875 223.460938 96.726562 223.105469 C 96.65625 222.746094 96.621094 222.386719 96.621094 222.023438 L 96.621094 203.492188 C 96.621094 203.128906 96.65625 202.765625 96.726562 202.410156 C 96.796875 202.050781 96.902344 201.703125 97.042969 201.367188 C 97.183594 201.03125 97.355469 200.710938 97.554688 200.40625 C 97.757812 200.105469 97.988281 199.824219 98.246094 199.566406 C 98.503906 199.308594 98.785156 199.078125 99.089844 198.875 C 99.390625 198.671875 99.710938 198.503906 100.046875 198.363281 C 100.386719 198.222656 100.730469 198.117188 101.089844 198.046875 C 101.445312 197.976562 101.808594 197.941406 102.171875 197.941406 L 272.125 197.941406 C 272.488281 197.941406 272.851562 197.976562 273.207031 198.046875 C 273.566406 198.117188 273.914062 198.222656 274.25 198.363281 C 274.585938 198.503906 274.90625 198.671875 275.207031 198.875 C 275.511719 199.078125 275.792969 199.308594 276.046875 199.566406 C 276.304688 199.824219 276.535156 200.105469 276.738281 200.40625 C 276.941406 200.710938 277.113281 201.03125 277.25 201.367188 C 277.390625 201.703125 277.496094 202.050781 277.566406 202.410156 C 277.636719 202.765625 277.671875 203.128906 277.671875 203.492188 L 277.671875 222.023438 C 277.671875 222.386719 277.636719 222.746094 277.566406 223.105469 C 277.496094 223.460938 277.390625 223.808594 277.25 224.144531 C 277.109375 224.480469 276.941406 224.800781 276.738281 225.105469 C 276.535156 225.40625 276.304688 225.6875 276.046875 225.945312 C 275.789062 226.203125 275.511719 226.433594 275.207031 226.636719 C 274.90625 226.835938 274.585938 227.007812 274.25 227.148438 C 273.910156 227.285156 273.566406 227.390625 273.207031 227.460938 C 272.851562 227.53125 272.488281 227.566406 272.125 227.566406 Z M 272.125 227.566406 " fill-opacity="1" fill-rule="nonzero"/></g></svg>