<svg xmlns="http://www.w3.org/2000/svg" xmlns:xlink="http://www.w3.org/1999/xlink" width="500" zoomAndPan="magnify" viewBox="0 0 375 374.999991" height="500" preserveAspectRatio="xMidYMid meet" version="1.0"><path fill="#ffffff" d="M 124.996094 187.613281 C 124.9375 153.101562 152.871094 125.066406 187.375 125.007812 C 221.886719 124.9375 249.929688 152.859375 249.996094 187.378906 C 250.0625 221.898438 222.128906 249.925781 187.613281 249.996094 C 153.105469 250.058594 125.0625 222.132812 124.996094 187.613281 Z M 91.226562 187.683594 C 91.328125 240.859375 134.515625 283.867188 187.679688 283.765625 C 240.847656 283.664062 283.882812 240.488281 283.78125 187.3125 C 283.675781 134.15625 240.484375 91.117188 187.308594 91.222656 C 134.144531 91.324219 91.125 134.519531 91.226562 187.683594 Z M 264.886719 87.273438 C 264.910156 99.691406 275.007812 109.746094 287.425781 109.722656 C 299.847656 109.695312 309.902344 99.605469 309.882812 87.1875 C 309.859375 74.769531 299.761719 64.710938 287.339844 64.734375 C 274.917969 64.757812 264.863281 74.855469 264.886719 87.273438 Z M 112.035156 340.25 C 93.753906 339.457031 83.828125 336.417969 77.210938 333.871094 C 68.453125 330.484375 62.199219 326.417969 55.621094 319.890625 C 49.054688 313.332031 44.976562 307.101562 41.558594 298.359375 C 38.988281 291.742188 35.894531 281.828125 35.039062 263.546875 C 34.109375 243.785156 33.898438 237.855469 33.804688 187.792969 C 33.707031 137.738281 33.890625 131.808594 34.753906 112.027344 C 35.535156 93.761719 38.59375 83.820312 41.132812 77.210938 C 44.523438 68.441406 48.574219 62.199219 55.117188 55.621094 C 61.671875 49.042969 67.902344 44.980469 76.652344 41.558594 C 83.261719 38.976562 93.175781 35.90625 111.449219 35.039062 C 131.222656 34.105469 137.148438 33.902344 187.199219 33.804688 C 237.261719 33.710938 243.191406 33.886719 262.972656 34.753906 C 281.238281 35.550781 291.179688 38.574219 297.78125 41.132812 C 306.546875 44.523438 312.800781 48.5625 319.375 55.117188 C 325.945312 61.671875 330.023438 67.894531 333.441406 76.660156 C 336.023438 83.25 339.09375 93.179688 339.957031 111.445312 C 340.898438 131.21875 341.109375 137.148438 341.199219 187.203125 C 341.296875 237.265625 341.113281 243.195312 340.246094 262.964844 C 339.449219 281.246094 336.417969 291.179688 333.867188 297.800781 C 330.476562 306.554688 326.425781 312.804688 319.878906 319.382812 C 313.328125 325.9375 307.09375 330.027344 298.339844 333.449219 C 291.742188 336.023438 281.816406 339.097656 263.554688 339.964844 C 243.78125 340.894531 237.859375 341.109375 187.789062 341.199219 C 137.738281 341.296875 131.8125 341.109375 112.035156 340.25 Z M 109.847656 1.296875 C 89.894531 2.242188 76.269531 5.433594 64.363281 10.101562 C 52.035156 14.90625 41.585938 21.347656 31.195312 31.785156 C 20.785156 42.226562 14.394531 52.691406 9.628906 65.03125 C 5.011719 76.96875 1.882812 90.601562 1 110.566406 C 0.125 130.5625 -0.0742188 136.941406 0.0234375 187.859375 C 0.121094 238.765625 0.34375 245.160156 1.296875 265.164062 C 2.25 285.109375 5.433594 298.726562 10.101562 310.640625 C 14.914062 322.96875 21.347656 333.410156 31.789062 343.8125 C 42.226562 354.210938 52.699219 360.597656 65.042969 365.371094 C 76.96875 369.984375 90.605469 373.125 110.5625 374 C 130.5625 374.878906 136.945312 375.074219 187.847656 374.976562 C 238.777344 374.878906 245.160156 374.65625 265.160156 373.707031 C 285.109375 372.753906 298.722656 369.558594 310.644531 364.902344 C 322.96875 360.082031 333.417969 353.660156 343.8125 343.214844 C 354.207031 332.777344 360.597656 322.304688 365.367188 309.960938 C 369.984375 298.035156 373.125 284.398438 373.992188 264.453125 C 374.867188 244.441406 375.074219 238.050781 374.976562 187.140625 C 374.878906 136.226562 374.648438 129.847656 373.703125 109.855469 C 372.753906 89.890625 369.558594 76.277344 364.898438 64.359375 C 360.082031 52.03125 353.65625 41.59375 343.21875 31.1875 C 332.78125 20.792969 322.308594 14.390625 309.964844 9.632812 C 298.03125 5.015625 284.398438 1.871094 264.441406 1.007812 C 244.445312 0.121094 238.058594 -0.0742188 187.136719 0.0234375 C 136.230469 0.121094 129.84375 0.339844 109.847656 1.296875 Z M 109.847656 1.296875 " fill-opacity="1" fill-rule="nonzero"/></svg>