<svg xmlns="http://www.w3.org/2000/svg" xmlns:xlink="http://www.w3.org/1999/xlink" width="500" zoomAndPan="magnify" viewBox="0 0 375 374.999991" height="500" preserveAspectRatio="xMidYMid meet" version="1.0"><defs><clipPath id="ee36ff3ce6"><path d="M 0 158 L 375 158 L 375 352.5 L 0 352.5 Z M 0 158 " clip-rule="nonzero"/></clipPath><clipPath id="d04a8f561c"><path d="M 25 29.25 L 350 29.25 L 350 133 L 25 133 Z M 25 29.25 " clip-rule="nonzero"/></clipPath></defs><g clip-path="url(#ee36ff3ce6)"><path fill="#ffffff" d="M 368.480469 223.15625 L 297.382812 223.15625 L 297.382812 164.984375 C 297.382812 164.5625 297.339844 164.140625 297.257812 163.722656 C 297.175781 163.308594 297.050781 162.902344 296.890625 162.511719 C 296.726562 162.121094 296.527344 161.746094 296.292969 161.394531 C 296.054688 161.042969 295.789062 160.714844 295.488281 160.414062 C 295.1875 160.113281 294.859375 159.847656 294.507812 159.609375 C 294.15625 159.375 293.78125 159.175781 293.390625 159.015625 C 293 158.851562 292.59375 158.730469 292.179688 158.644531 C 291.761719 158.5625 291.34375 158.523438 290.917969 158.523438 L 252.136719 158.523438 C 251.710938 158.523438 251.292969 158.5625 250.875 158.644531 C 250.457031 158.730469 250.054688 158.851562 249.664062 159.015625 C 249.269531 159.175781 248.898438 159.375 248.546875 159.609375 C 248.191406 159.847656 247.867188 160.113281 247.566406 160.414062 C 247.265625 160.714844 246.996094 161.042969 246.761719 161.394531 C 246.527344 161.746094 246.328125 162.121094 246.164062 162.511719 C 246.003906 162.902344 245.878906 163.308594 245.796875 163.722656 C 245.714844 164.140625 245.671875 164.5625 245.671875 164.984375 L 245.671875 184.375 C 245.671875 184.800781 245.714844 185.222656 245.796875 185.636719 C 245.878906 186.054688 246 186.457031 246.164062 186.851562 C 246.328125 187.242188 246.527344 187.613281 246.761719 187.96875 C 246.996094 188.320312 247.265625 188.648438 247.566406 188.945312 C 247.867188 189.246094 248.191406 189.515625 248.546875 189.75 C 248.898438 189.984375 249.269531 190.183594 249.664062 190.347656 C 250.054688 190.511719 250.457031 190.632812 250.875 190.714844 C 251.292969 190.796875 251.710938 190.839844 252.136719 190.839844 C 252.558594 190.839844 252.980469 190.796875 253.398438 190.714844 C 253.8125 190.632812 254.21875 190.511719 254.609375 190.347656 C 255 190.183594 255.375 189.984375 255.726562 189.75 C 256.078125 189.515625 256.40625 189.246094 256.707031 188.945312 C 257.007812 188.648438 257.273438 188.320312 257.511719 187.96875 C 257.746094 187.613281 257.945312 187.242188 258.109375 186.851562 C 258.269531 186.457031 258.390625 186.054688 258.476562 185.636719 C 258.558594 185.222656 258.597656 184.800781 258.597656 184.375 L 258.597656 171.449219 L 284.453125 171.449219 L 284.453125 223.15625 L 135.792969 223.15625 L 135.792969 217.277344 C 135.746094 214.878906 135.378906 212.527344 134.691406 210.230469 L 145.875 202.796875 C 146.226562 202.558594 146.554688 202.289062 146.851562 201.988281 C 147.152344 201.6875 147.417969 201.359375 147.652344 201.003906 C 147.886719 200.648438 148.085938 200.277344 148.246094 199.882812 C 148.40625 199.488281 148.527344 199.082031 148.609375 198.667969 C 148.691406 198.25 148.730469 197.828125 148.730469 197.402344 C 148.726562 196.976562 148.683594 196.558594 148.597656 196.140625 C 148.515625 195.722656 148.390625 195.320312 148.226562 194.929688 C 148.0625 194.535156 147.859375 194.164062 147.621094 193.8125 C 147.382812 193.457031 147.113281 193.132812 146.8125 192.832031 C 146.511719 192.535156 146.183594 192.269531 145.828125 192.035156 C 145.472656 191.800781 145.097656 191.601562 144.707031 191.441406 C 144.3125 191.28125 143.90625 191.160156 143.488281 191.078125 C 143.074219 190.996094 142.652344 190.957031 142.226562 190.960938 C 141.800781 190.960938 141.378906 191.003906 140.964844 191.089844 C 140.546875 191.175781 140.144531 191.300781 139.75 191.464844 C 139.359375 191.628906 138.988281 191.828125 138.636719 192.066406 L 128.292969 198.984375 C 126.667969 197.292969 124.84375 195.847656 122.828125 194.652344 C 120.808594 193.457031 118.664062 192.550781 116.402344 191.9375 L 116.402344 184.375 C 116.402344 183.742188 116.371094 183.109375 116.308594 182.476562 C 116.246094 181.84375 116.152344 181.214844 116.027344 180.59375 C 115.902344 179.96875 115.75 179.355469 115.566406 178.746094 C 115.382812 178.140625 115.167969 177.542969 114.925781 176.957031 C 114.679688 176.367188 114.410156 175.796875 114.109375 175.234375 C 113.8125 174.675781 113.484375 174.132812 113.132812 173.601562 C 112.78125 173.074219 112.402344 172.566406 112 172.074219 C 111.597656 171.582031 111.171875 171.113281 110.722656 170.664062 C 110.273438 170.214844 109.800781 169.789062 109.3125 169.386719 C 108.820312 168.984375 108.3125 168.605469 107.78125 168.253906 C 107.253906 167.902344 106.710938 167.574219 106.152344 167.273438 C 105.589844 166.976562 105.015625 166.703125 104.429688 166.460938 C 103.84375 166.21875 103.246094 166.003906 102.636719 165.820312 C 102.03125 165.636719 101.414062 165.480469 100.792969 165.359375 C 100.167969 165.234375 99.542969 165.140625 98.910156 165.078125 C 98.277344 165.015625 97.644531 164.984375 97.007812 164.984375 C 96.375 164.984375 95.742188 165.015625 95.109375 165.078125 C 94.476562 165.140625 93.847656 165.234375 93.226562 165.359375 C 92.605469 165.480469 91.988281 165.636719 91.378906 165.820312 C 90.773438 166.003906 90.175781 166.21875 89.589844 166.460938 C 89.003906 166.703125 88.429688 166.976562 87.867188 167.273438 C 87.308594 167.574219 86.765625 167.902344 86.238281 168.253906 C 85.707031 168.605469 85.199219 168.984375 84.707031 169.386719 C 84.21875 169.789062 83.746094 170.214844 83.296875 170.664062 C 82.847656 171.113281 82.421875 171.582031 82.019531 172.074219 C 81.617188 172.566406 81.238281 173.074219 80.886719 173.601562 C 80.535156 174.132812 80.207031 174.675781 79.910156 175.234375 C 79.609375 175.796875 79.339844 176.367188 79.09375 176.957031 C 78.851562 177.542969 78.636719 178.140625 78.453125 178.746094 C 78.269531 179.355469 78.117188 179.96875 77.992188 180.59375 C 77.867188 181.214844 77.773438 181.84375 77.710938 182.476562 C 77.648438 183.109375 77.617188 183.742188 77.617188 184.375 L 77.617188 191.9375 C 76.238281 192.316406 74.894531 192.800781 73.59375 193.394531 C 72.292969 193.992188 71.046875 194.6875 69.859375 195.488281 C 68.671875 196.285156 67.554688 197.175781 66.511719 198.15625 C 65.46875 199.136719 64.515625 200.195312 63.644531 201.332031 C 62.773438 202.46875 62 203.667969 61.328125 204.929688 C 60.652344 206.195312 60.085938 207.503906 59.625 208.859375 C 59.164062 210.214844 58.816406 211.597656 58.582031 213.011719 C 58.347656 214.421875 58.230469 215.84375 58.226562 217.277344 L 58.226562 223.15625 L 6.519531 223.15625 C 6.09375 223.15625 5.675781 223.199219 5.257812 223.28125 C 4.84375 223.363281 4.4375 223.488281 4.046875 223.648438 C 3.652344 223.8125 3.28125 224.011719 2.929688 224.246094 C 2.574219 224.484375 2.25 224.75 1.949219 225.050781 C 1.648438 225.351562 1.382812 225.675781 1.144531 226.03125 C 0.910156 226.382812 0.710938 226.753906 0.546875 227.148438 C 0.386719 227.539062 0.261719 227.945312 0.179688 228.359375 C 0.0976562 228.777344 0.0546875 229.195312 0.0546875 229.621094 L 0.0546875 345.964844 C 0.0546875 346.390625 0.0976562 346.8125 0.179688 347.226562 C 0.261719 347.644531 0.386719 348.046875 0.546875 348.441406 C 0.710938 348.832031 0.910156 349.203125 1.144531 349.558594 C 1.382812 349.910156 1.648438 350.238281 1.949219 350.535156 C 2.25 350.835938 2.574219 351.105469 2.929688 351.339844 C 3.28125 351.574219 3.652344 351.773438 4.046875 351.9375 C 4.4375 352.101562 4.84375 352.222656 5.257812 352.304688 C 5.675781 352.386719 6.09375 352.429688 6.519531 352.429688 L 368.480469 352.429688 C 368.90625 352.429688 369.324219 352.386719 369.742188 352.304688 C 370.15625 352.222656 370.5625 352.101562 370.953125 351.9375 C 371.347656 351.773438 371.71875 351.574219 372.070312 351.339844 C 372.425781 351.105469 372.75 350.835938 373.050781 350.535156 C 373.351562 350.238281 373.617188 349.910156 373.855469 349.558594 C 374.089844 349.203125 374.289062 348.832031 374.453125 348.441406 C 374.613281 348.046875 374.738281 347.644531 374.820312 347.226562 C 374.902344 346.8125 374.945312 346.390625 374.945312 345.964844 L 374.945312 229.621094 C 374.945312 229.195312 374.902344 228.777344 374.820312 228.359375 C 374.738281 227.945312 374.613281 227.539062 374.453125 227.148438 C 374.289062 226.753906 374.089844 226.382812 373.855469 226.03125 C 373.617188 225.675781 373.351562 225.351562 373.050781 225.050781 C 372.75 224.75 372.425781 224.484375 372.070312 224.246094 C 371.71875 224.011719 371.347656 223.8125 370.953125 223.648438 C 370.5625 223.488281 370.15625 223.363281 369.742188 223.28125 C 369.324219 223.199219 368.90625 223.15625 368.480469 223.15625 Z M 90.546875 300.722656 L 12.984375 300.722656 L 12.984375 274.867188 L 90.546875 274.867188 Z M 103.472656 236.085938 L 181.035156 236.085938 L 181.035156 339.503906 L 103.472656 339.503906 Z M 193.964844 236.085938 L 271.527344 236.085938 L 271.527344 339.503906 L 193.964844 339.503906 Z M 97.007812 177.914062 C 97.433594 177.914062 97.855469 177.953125 98.269531 178.035156 C 98.6875 178.121094 99.089844 178.242188 99.484375 178.40625 C 99.875 178.566406 100.246094 178.765625 100.601562 179 C 100.953125 179.238281 101.28125 179.503906 101.582031 179.804688 C 101.878906 180.105469 102.148438 180.433594 102.382812 180.785156 C 102.621094 181.136719 102.820312 181.511719 102.980469 181.902344 C 103.144531 182.292969 103.265625 182.699219 103.347656 183.117188 C 103.433594 183.53125 103.472656 183.953125 103.472656 184.375 L 103.472656 190.839844 L 90.546875 190.839844 L 90.546875 184.375 C 90.546875 183.953125 90.585938 183.53125 90.671875 183.117188 C 90.753906 182.699219 90.875 182.292969 91.039062 181.902344 C 91.199219 181.511719 91.398438 181.136719 91.636719 180.785156 C 91.871094 180.433594 92.140625 180.105469 92.4375 179.804688 C 92.738281 179.503906 93.066406 179.238281 93.417969 179.003906 C 93.773438 178.765625 94.144531 178.566406 94.535156 178.40625 C 94.929688 178.242188 95.332031 178.121094 95.75 178.035156 C 96.164062 177.953125 96.585938 177.914062 97.007812 177.914062 Z M 71.15625 217.277344 C 71.160156 216.390625 71.25 215.511719 71.425781 214.644531 C 71.601562 213.777344 71.859375 212.933594 72.199219 212.117188 C 72.542969 211.296875 72.957031 210.523438 73.453125 209.785156 C 73.945312 209.050781 74.503906 208.367188 75.128906 207.742188 C 75.757812 207.117188 76.4375 206.554688 77.175781 206.0625 C 77.910156 205.570312 78.6875 205.152344 79.503906 204.8125 C 80.320312 204.472656 81.164062 204.214844 82.035156 204.039062 C 82.902344 203.859375 83.777344 203.769531 84.664062 203.765625 L 109.355469 203.765625 C 110.242188 203.769531 111.117188 203.859375 111.984375 204.039062 C 112.855469 204.214844 113.695312 204.472656 114.515625 204.8125 C 115.332031 205.152344 116.109375 205.570312 116.84375 206.0625 C 117.582031 206.554688 118.261719 207.117188 118.886719 207.742188 C 119.515625 208.367188 120.074219 209.050781 120.566406 209.785156 C 121.0625 210.523438 121.476562 211.296875 121.820312 212.117188 C 122.160156 212.933594 122.417969 213.777344 122.59375 214.644531 C 122.769531 215.511719 122.859375 216.390625 122.863281 217.277344 L 122.863281 223.15625 L 71.15625 223.15625 Z M 64.691406 236.085938 L 90.546875 236.085938 L 90.546875 261.9375 L 12.984375 261.9375 L 12.984375 236.085938 Z M 12.984375 313.648438 L 90.546875 313.648438 L 90.546875 339.503906 L 12.984375 339.503906 Z M 362.015625 339.503906 L 284.453125 339.503906 L 284.453125 236.085938 L 362.015625 236.085938 Z M 362.015625 339.503906 " fill-opacity="1" fill-rule="nonzero"/></g><g clip-path="url(#d04a8f561c)"><path fill="#ffffff" d="M 32.375 132.667969 L 342.625 132.667969 C 343.050781 132.667969 343.472656 132.625 343.886719 132.542969 C 344.304688 132.460938 344.707031 132.335938 345.101562 132.175781 C 345.492188 132.011719 345.863281 131.8125 346.21875 131.578125 C 346.570312 131.34375 346.898438 131.074219 347.195312 130.773438 C 347.496094 130.472656 347.765625 130.148438 348 129.792969 C 348.234375 129.441406 348.433594 129.070312 348.597656 128.675781 C 348.761719 128.285156 348.882812 127.882812 348.964844 127.464844 C 349.046875 127.046875 349.089844 126.628906 349.089844 126.203125 L 349.089844 35.714844 C 349.089844 35.289062 349.046875 34.867188 348.964844 34.453125 C 348.882812 34.035156 348.761719 33.632812 348.597656 33.238281 C 348.433594 32.847656 348.234375 32.476562 348 32.121094 C 347.765625 31.769531 347.496094 31.441406 347.195312 31.144531 C 346.898438 30.84375 346.570312 30.574219 346.21875 30.339844 C 345.863281 30.105469 345.492188 29.90625 345.101562 29.742188 C 344.707031 29.578125 344.304688 29.457031 343.886719 29.375 C 343.472656 29.292969 343.050781 29.25 342.625 29.25 L 32.375 29.25 C 31.949219 29.25 31.527344 29.292969 31.113281 29.375 C 30.695312 29.457031 30.292969 29.578125 29.898438 29.742188 C 29.507812 29.90625 29.136719 30.105469 28.78125 30.339844 C 28.429688 30.574219 28.101562 30.84375 27.804688 31.144531 C 27.503906 31.441406 27.234375 31.769531 27 32.121094 C 26.765625 32.476562 26.566406 32.847656 26.402344 33.238281 C 26.238281 33.632812 26.117188 34.035156 26.035156 34.453125 C 25.953125 34.867188 25.910156 35.289062 25.910156 35.714844 L 25.910156 126.203125 C 25.910156 126.628906 25.953125 127.046875 26.035156 127.464844 C 26.117188 127.882812 26.238281 128.285156 26.402344 128.675781 C 26.566406 129.070312 26.765625 129.441406 27 129.792969 C 27.234375 130.148438 27.503906 130.472656 27.804688 130.773438 C 28.101562 131.074219 28.429688 131.34375 28.78125 131.578125 C 29.136719 131.8125 29.507812 132.011719 29.898438 132.175781 C 30.292969 132.335938 30.695312 132.460938 31.113281 132.542969 C 31.527344 132.625 31.949219 132.667969 32.375 132.667969 Z M 181.035156 119.742188 L 116.402344 119.742188 L 116.402344 42.175781 L 181.035156 42.175781 Z M 193.964844 42.175781 L 258.597656 42.175781 L 258.597656 119.742188 L 193.964844 119.742188 Z M 336.164062 119.742188 L 271.527344 119.742188 L 271.527344 42.175781 L 336.164062 42.175781 Z M 38.835938 42.175781 L 103.472656 42.175781 L 103.472656 119.742188 L 38.835938 119.742188 Z M 38.835938 42.175781 " fill-opacity="1" fill-rule="nonzero"/></g><path fill="#ffffff" d="M 258.597656 287.792969 C 258.597656 288.21875 258.558594 288.636719 258.476562 289.054688 C 258.390625 289.472656 258.269531 289.875 258.109375 290.265625 C 257.945312 290.660156 257.746094 291.03125 257.511719 291.382812 C 257.273438 291.738281 257.007812 292.0625 256.707031 292.363281 C 256.40625 292.664062 256.078125 292.933594 255.726562 293.167969 C 255.375 293.402344 255 293.601562 254.609375 293.765625 C 254.21875 293.925781 253.8125 294.050781 253.398438 294.132812 C 252.980469 294.214844 252.558594 294.257812 252.136719 294.257812 C 251.710938 294.257812 251.292969 294.214844 250.875 294.132812 C 250.457031 294.050781 250.054688 293.925781 249.664062 293.765625 C 249.269531 293.601562 248.898438 293.402344 248.546875 293.167969 C 248.191406 292.933594 247.867188 292.664062 247.566406 292.363281 C 247.265625 292.0625 246.996094 291.738281 246.761719 291.382812 C 246.527344 291.03125 246.328125 290.660156 246.164062 290.265625 C 246 289.875 245.878906 289.472656 245.796875 289.054688 C 245.714844 288.636719 245.671875 288.21875 245.671875 287.792969 C 245.671875 287.371094 245.714844 286.949219 245.796875 286.53125 C 245.878906 286.117188 246 285.710938 246.164062 285.320312 C 246.328125 284.929688 246.527344 284.554688 246.761719 284.203125 C 246.996094 283.851562 247.265625 283.523438 247.566406 283.222656 C 247.867188 282.921875 248.191406 282.65625 248.546875 282.417969 C 248.898438 282.183594 249.269531 281.984375 249.664062 281.820312 C 250.054688 281.660156 250.457031 281.539062 250.875 281.453125 C 251.292969 281.371094 251.710938 281.332031 252.136719 281.332031 C 252.558594 281.332031 252.980469 281.371094 253.398438 281.453125 C 253.8125 281.539062 254.21875 281.660156 254.609375 281.820312 C 255 281.984375 255.375 282.183594 255.726562 282.417969 C 256.078125 282.65625 256.40625 282.921875 256.707031 283.222656 C 257.007812 283.523438 257.273438 283.851562 257.511719 284.203125 C 257.746094 284.554688 257.945312 284.929688 258.109375 285.320312 C 258.269531 285.710938 258.390625 286.117188 258.476562 286.53125 C 258.558594 286.949219 258.597656 287.371094 258.597656 287.792969 Z M 258.597656 287.792969 " fill-opacity="1" fill-rule="nonzero"/><path fill="#ffffff" d="M 129.328125 287.792969 C 129.328125 288.21875 129.285156 288.636719 129.203125 289.054688 C 129.121094 289.472656 128.996094 289.875 128.835938 290.265625 C 128.671875 290.660156 128.472656 291.03125 128.238281 291.382812 C 128.003906 291.738281 127.734375 292.0625 127.433594 292.363281 C 127.132812 292.664062 126.808594 292.933594 126.453125 293.167969 C 126.101562 293.402344 125.730469 293.601562 125.335938 293.765625 C 124.945312 293.925781 124.542969 294.050781 124.125 294.132812 C 123.707031 294.214844 123.289062 294.257812 122.863281 294.257812 C 122.441406 294.257812 122.019531 294.214844 121.601562 294.132812 C 121.1875 294.050781 120.78125 293.925781 120.390625 293.765625 C 120 293.601562 119.625 293.402344 119.273438 293.167969 C 118.921875 292.933594 118.59375 292.664062 118.292969 292.363281 C 117.992188 292.0625 117.726562 291.738281 117.488281 291.382812 C 117.253906 291.03125 117.054688 290.660156 116.890625 290.265625 C 116.730469 289.875 116.609375 289.472656 116.523438 289.054688 C 116.441406 288.636719 116.402344 288.21875 116.402344 287.792969 C 116.402344 287.371094 116.441406 286.949219 116.523438 286.53125 C 116.609375 286.117188 116.730469 285.710938 116.890625 285.320312 C 117.054688 284.929688 117.253906 284.554688 117.488281 284.203125 C 117.726562 283.851562 117.992188 283.523438 118.292969 283.222656 C 118.59375 282.921875 118.921875 282.65625 119.273438 282.417969 C 119.625 282.183594 120 281.984375 120.390625 281.820312 C 120.78125 281.660156 121.1875 281.539062 121.601562 281.453125 C 122.019531 281.371094 122.441406 281.332031 122.863281 281.332031 C 123.289062 281.332031 123.707031 281.371094 124.125 281.453125 C 124.542969 281.539062 124.945312 281.660156 125.335938 281.820312 C 125.730469 281.984375 126.101562 282.183594 126.453125 282.417969 C 126.808594 282.65625 127.132812 282.921875 127.433594 283.222656 C 127.734375 283.523438 128.003906 283.851562 128.238281 284.203125 C 128.472656 284.554688 128.671875 284.929688 128.835938 285.320312 C 128.996094 285.710938 129.121094 286.117188 129.203125 286.53125 C 129.285156 286.949219 129.328125 287.371094 129.328125 287.792969 Z M 129.328125 287.792969 " fill-opacity="1" fill-rule="nonzero"/><path fill="#ffffff" d="M 310.308594 287.792969 C 310.308594 288.21875 310.265625 288.636719 310.183594 289.054688 C 310.101562 289.472656 309.980469 289.875 309.816406 290.265625 C 309.652344 290.660156 309.453125 291.03125 309.21875 291.382812 C 308.984375 291.738281 308.714844 292.0625 308.414062 292.363281 C 308.113281 292.664062 307.789062 292.933594 307.4375 293.167969 C 307.082031 293.402344 306.710938 293.601562 306.316406 293.765625 C 305.925781 293.925781 305.523438 294.050781 305.105469 294.132812 C 304.6875 294.214844 304.269531 294.257812 303.84375 294.257812 C 303.421875 294.257812 303 294.214844 302.582031 294.132812 C 302.167969 294.050781 301.761719 293.925781 301.371094 293.765625 C 300.980469 293.601562 300.605469 293.402344 300.253906 293.167969 C 299.902344 292.933594 299.574219 292.664062 299.273438 292.363281 C 298.972656 292.0625 298.707031 291.738281 298.46875 291.382812 C 298.234375 291.03125 298.035156 290.660156 297.875 290.265625 C 297.710938 289.875 297.589844 289.472656 297.503906 289.054688 C 297.421875 288.636719 297.382812 288.21875 297.382812 287.792969 C 297.382812 287.371094 297.421875 286.949219 297.503906 286.53125 C 297.589844 286.117188 297.710938 285.710938 297.875 285.320312 C 298.035156 284.929688 298.234375 284.554688 298.46875 284.203125 C 298.707031 283.851562 298.972656 283.523438 299.273438 283.222656 C 299.574219 282.921875 299.902344 282.65625 300.253906 282.417969 C 300.605469 282.183594 300.980469 281.984375 301.371094 281.820312 C 301.761719 281.660156 302.167969 281.539062 302.582031 281.453125 C 303 281.371094 303.421875 281.332031 303.84375 281.332031 C 304.269531 281.332031 304.6875 281.371094 305.105469 281.453125 C 305.523438 281.539062 305.925781 281.660156 306.316406 281.820312 C 306.710938 281.984375 307.082031 282.183594 307.4375 282.417969 C 307.789062 282.65625 308.113281 282.921875 308.414062 283.222656 C 308.714844 283.523438 308.984375 283.851562 309.21875 284.203125 C 309.453125 284.554688 309.652344 284.929688 309.816406 285.320312 C 309.980469 285.710938 310.101562 286.117188 310.183594 286.53125 C 310.265625 286.949219 310.308594 287.371094 310.308594 287.792969 Z M 310.308594 287.792969 " fill-opacity="1" fill-rule="nonzero"/><path fill="#ffffff" d="M 58.226562 287.792969 C 58.226562 288.21875 58.1875 288.636719 58.105469 289.054688 C 58.019531 289.472656 57.898438 289.875 57.734375 290.265625 C 57.574219 290.660156 57.375 291.03125 57.140625 291.382812 C 56.902344 291.738281 56.636719 292.0625 56.335938 292.363281 C 56.035156 292.664062 55.707031 292.933594 55.355469 293.167969 C 55.003906 293.402344 54.628906 293.601562 54.238281 293.765625 C 53.847656 293.925781 53.441406 294.050781 53.027344 294.132812 C 52.609375 294.214844 52.1875 294.257812 51.765625 294.257812 C 51.339844 294.257812 50.917969 294.214844 50.503906 294.132812 C 50.085938 294.050781 49.683594 293.925781 49.289062 293.765625 C 48.898438 293.601562 48.527344 293.402344 48.171875 293.167969 C 47.820312 292.933594 47.496094 292.664062 47.195312 292.363281 C 46.894531 292.0625 46.625 291.738281 46.390625 291.382812 C 46.15625 291.03125 45.957031 290.660156 45.792969 290.265625 C 45.628906 289.875 45.507812 289.472656 45.425781 289.054688 C 45.34375 288.636719 45.300781 288.21875 45.300781 287.792969 C 45.300781 287.371094 45.34375 286.949219 45.425781 286.53125 C 45.507812 286.117188 45.628906 285.710938 45.792969 285.320312 C 45.957031 284.929688 46.15625 284.554688 46.390625 284.203125 C 46.625 283.851562 46.894531 283.523438 47.195312 283.222656 C 47.496094 282.921875 47.820312 282.65625 48.171875 282.417969 C 48.527344 282.183594 48.898438 281.984375 49.289062 281.820312 C 49.683594 281.660156 50.085938 281.539062 50.503906 281.453125 C 50.917969 281.371094 51.339844 281.332031 51.765625 281.332031 C 52.1875 281.332031 52.609375 281.371094 53.027344 281.453125 C 53.441406 281.539062 53.847656 281.660156 54.238281 281.820312 C 54.628906 281.984375 55.003906 282.183594 55.355469 282.417969 C 55.707031 282.65625 56.035156 282.921875 56.335938 283.222656 C 56.636719 283.523438 56.902344 283.851562 57.140625 284.203125 C 57.375 284.554688 57.574219 284.929688 57.734375 285.320312 C 57.898438 285.710938 58.019531 286.117188 58.105469 286.53125 C 58.1875 286.949219 58.226562 287.371094 58.226562 287.792969 Z M 58.226562 287.792969 " fill-opacity="1" fill-rule="nonzero"/><path fill="#ffffff" d="M 58.226562 326.574219 C 58.226562 327 58.1875 327.421875 58.105469 327.835938 C 58.019531 328.253906 57.898438 328.65625 57.734375 329.046875 C 57.574219 329.441406 57.375 329.8125 57.140625 330.167969 C 56.902344 330.519531 56.636719 330.84375 56.335938 331.144531 C 56.035156 331.445312 55.707031 331.714844 55.355469 331.949219 C 55.003906 332.183594 54.628906 332.382812 54.238281 332.546875 C 53.847656 332.710938 53.441406 332.832031 53.027344 332.914062 C 52.609375 332.996094 52.1875 333.039062 51.765625 333.039062 C 51.339844 333.039062 50.917969 332.996094 50.503906 332.914062 C 50.085938 332.832031 49.683594 332.710938 49.289062 332.546875 C 48.898438 332.382812 48.527344 332.183594 48.171875 331.949219 C 47.820312 331.714844 47.496094 331.445312 47.195312 331.144531 C 46.894531 330.84375 46.625 330.519531 46.390625 330.167969 C 46.15625 329.8125 45.957031 329.441406 45.792969 329.046875 C 45.628906 328.65625 45.507812 328.253906 45.425781 327.835938 C 45.34375 327.421875 45.300781 327 45.300781 326.574219 C 45.300781 326.152344 45.34375 325.730469 45.425781 325.3125 C 45.507812 324.898438 45.628906 324.492188 45.792969 324.101562 C 45.957031 323.710938 46.15625 323.335938 46.390625 322.984375 C 46.625 322.632812 46.894531 322.304688 47.195312 322.003906 C 47.496094 321.703125 47.820312 321.4375 48.171875 321.199219 C 48.527344 320.964844 48.898438 320.765625 49.289062 320.605469 C 49.683594 320.441406 50.085938 320.320312 50.503906 320.234375 C 50.917969 320.152344 51.339844 320.113281 51.765625 320.113281 C 52.1875 320.113281 52.609375 320.152344 53.027344 320.234375 C 53.441406 320.320312 53.847656 320.441406 54.238281 320.605469 C 54.628906 320.765625 55.003906 320.964844 55.355469 321.199219 C 55.707031 321.4375 56.035156 321.703125 56.335938 322.003906 C 56.636719 322.304688 56.902344 322.632812 57.140625 322.984375 C 57.375 323.335938 57.574219 323.710938 57.734375 324.101562 C 57.898438 324.492188 58.019531 324.898438 58.105469 325.3125 C 58.1875 325.730469 58.226562 326.152344 58.226562 326.574219 Z M 58.226562 326.574219 " fill-opacity="1" fill-rule="nonzero"/><path fill="#ffffff" d="M 58.226562 249.011719 C 58.226562 249.4375 58.1875 249.855469 58.105469 250.273438 C 58.019531 250.6875 57.898438 251.09375 57.734375 251.484375 C 57.574219 251.878906 57.375 252.25 57.140625 252.601562 C 56.902344 252.957031 56.636719 253.28125 56.335938 253.582031 C 56.035156 253.882812 55.707031 254.152344 55.355469 254.386719 C 55.003906 254.621094 54.628906 254.820312 54.238281 254.984375 C 53.847656 255.144531 53.441406 255.269531 53.027344 255.351562 C 52.609375 255.433594 52.1875 255.476562 51.765625 255.476562 C 51.339844 255.476562 50.917969 255.433594 50.503906 255.351562 C 50.085938 255.269531 49.683594 255.144531 49.289062 254.984375 C 48.898438 254.820312 48.527344 254.621094 48.171875 254.386719 C 47.820312 254.152344 47.496094 253.882812 47.195312 253.582031 C 46.894531 253.28125 46.625 252.957031 46.390625 252.601562 C 46.15625 252.25 45.957031 251.878906 45.792969 251.484375 C 45.628906 251.09375 45.507812 250.6875 45.425781 250.273438 C 45.34375 249.855469 45.300781 249.4375 45.300781 249.011719 C 45.300781 248.585938 45.34375 248.167969 45.425781 247.75 C 45.507812 247.335938 45.628906 246.929688 45.792969 246.539062 C 45.957031 246.148438 46.15625 245.773438 46.390625 245.421875 C 46.625 245.066406 46.894531 244.742188 47.195312 244.441406 C 47.496094 244.140625 47.820312 243.875 48.171875 243.636719 C 48.527344 243.402344 48.898438 243.203125 49.289062 243.039062 C 49.683594 242.878906 50.085938 242.753906 50.503906 242.671875 C 50.917969 242.589844 51.339844 242.546875 51.765625 242.546875 C 52.1875 242.546875 52.609375 242.589844 53.027344 242.671875 C 53.441406 242.753906 53.847656 242.878906 54.238281 243.039062 C 54.628906 243.203125 55.003906 243.402344 55.355469 243.636719 C 55.707031 243.875 56.035156 244.140625 56.335938 244.441406 C 56.636719 244.742188 56.902344 245.066406 57.140625 245.421875 C 57.375 245.773438 57.574219 246.148438 57.734375 246.539062 C 57.898438 246.929688 58.019531 247.335938 58.105469 247.75 C 58.1875 248.167969 58.226562 248.585938 58.226562 249.011719 Z M 58.226562 249.011719 " fill-opacity="1" fill-rule="nonzero"/><path fill="#ffffff" d="M 90.546875 80.957031 C 90.546875 81.382812 90.503906 81.804688 90.421875 82.21875 C 90.339844 82.636719 90.214844 83.039062 90.054688 83.433594 C 89.890625 83.824219 89.691406 84.195312 89.457031 84.550781 C 89.222656 84.902344 88.953125 85.230469 88.652344 85.527344 C 88.351562 85.828125 88.027344 86.097656 87.671875 86.332031 C 87.320312 86.570312 86.949219 86.769531 86.554688 86.929688 C 86.164062 87.09375 85.757812 87.214844 85.34375 87.296875 C 84.925781 87.382812 84.507812 87.421875 84.082031 87.421875 C 83.65625 87.421875 83.238281 87.382812 82.820312 87.296875 C 82.40625 87.214844 82 87.09375 81.609375 86.929688 C 81.21875 86.769531 80.84375 86.570312 80.492188 86.332031 C 80.136719 86.097656 79.8125 85.828125 79.511719 85.527344 C 79.210938 85.230469 78.945312 84.902344 78.707031 84.550781 C 78.472656 84.195312 78.273438 83.824219 78.109375 83.433594 C 77.949219 83.039062 77.824219 82.636719 77.742188 82.21875 C 77.660156 81.804688 77.617188 81.382812 77.617188 80.957031 C 77.617188 80.535156 77.660156 80.113281 77.742188 79.699219 C 77.824219 79.28125 77.949219 78.878906 78.109375 78.484375 C 78.273438 78.09375 78.472656 77.71875 78.707031 77.367188 C 78.945312 77.015625 79.210938 76.6875 79.511719 76.386719 C 79.8125 76.089844 80.136719 75.820312 80.492188 75.585938 C 80.84375 75.347656 81.21875 75.148438 81.609375 74.988281 C 82 74.824219 82.40625 74.703125 82.820312 74.621094 C 83.238281 74.535156 83.65625 74.496094 84.082031 74.496094 C 84.507812 74.496094 84.925781 74.535156 85.34375 74.621094 C 85.757812 74.703125 86.164062 74.824219 86.554688 74.988281 C 86.949219 75.148438 87.320312 75.347656 87.671875 75.585938 C 88.027344 75.820312 88.351562 76.089844 88.652344 76.386719 C 88.953125 76.6875 89.222656 77.015625 89.457031 77.367188 C 89.691406 77.71875 89.890625 78.09375 90.054688 78.484375 C 90.214844 78.878906 90.339844 79.28125 90.421875 79.699219 C 90.503906 80.113281 90.546875 80.535156 90.546875 80.957031 Z M 90.546875 80.957031 " fill-opacity="1" fill-rule="nonzero"/><path fill="#ffffff" d="M 142.253906 80.957031 C 142.253906 81.382812 142.214844 81.804688 142.128906 82.21875 C 142.046875 82.636719 141.925781 83.039062 141.761719 83.433594 C 141.601562 83.824219 141.402344 84.195312 141.164062 84.550781 C 140.929688 84.902344 140.660156 85.230469 140.363281 85.527344 C 140.0625 85.828125 139.734375 86.097656 139.382812 86.332031 C 139.03125 86.570312 138.65625 86.769531 138.265625 86.929688 C 137.871094 87.09375 137.46875 87.214844 137.050781 87.296875 C 136.636719 87.382812 136.214844 87.421875 135.792969 87.421875 C 135.367188 87.421875 134.945312 87.382812 134.53125 87.296875 C 134.113281 87.214844 133.710938 87.09375 133.316406 86.929688 C 132.925781 86.769531 132.554688 86.570312 132.199219 86.332031 C 131.847656 86.097656 131.519531 85.828125 131.222656 85.527344 C 130.921875 85.230469 130.652344 84.902344 130.417969 84.550781 C 130.179688 84.195312 129.980469 83.824219 129.820312 83.433594 C 129.65625 83.039062 129.535156 82.636719 129.453125 82.21875 C 129.367188 81.804688 129.328125 81.382812 129.328125 80.957031 C 129.328125 80.535156 129.367188 80.113281 129.453125 79.699219 C 129.535156 79.28125 129.65625 78.878906 129.820312 78.484375 C 129.980469 78.09375 130.179688 77.71875 130.417969 77.367188 C 130.652344 77.015625 130.921875 76.6875 131.222656 76.386719 C 131.519531 76.089844 131.847656 75.820312 132.199219 75.585938 C 132.554688 75.347656 132.925781 75.148438 133.316406 74.988281 C 133.710938 74.824219 134.113281 74.703125 134.53125 74.621094 C 134.945312 74.535156 135.367188 74.496094 135.792969 74.496094 C 136.214844 74.496094 136.636719 74.535156 137.050781 74.621094 C 137.46875 74.703125 137.871094 74.824219 138.265625 74.988281 C 138.65625 75.148438 139.03125 75.347656 139.382812 75.585938 C 139.734375 75.820312 140.0625 76.089844 140.363281 76.386719 C 140.660156 76.6875 140.929688 77.015625 141.164062 77.367188 C 141.402344 77.71875 141.601562 78.09375 141.761719 78.484375 C 141.925781 78.878906 142.046875 79.28125 142.128906 79.699219 C 142.214844 80.113281 142.253906 80.535156 142.253906 80.957031 Z M 142.253906 80.957031 " fill-opacity="1" fill-rule="nonzero"/><path fill="#ffffff" d="M 245.671875 80.957031 C 245.671875 81.382812 245.632812 81.804688 245.546875 82.21875 C 245.464844 82.636719 245.34375 83.039062 245.179688 83.433594 C 245.019531 83.824219 244.820312 84.195312 244.582031 84.550781 C 244.347656 84.902344 244.078125 85.230469 243.777344 85.527344 C 243.480469 85.828125 243.152344 86.097656 242.800781 86.332031 C 242.445312 86.570312 242.074219 86.769531 241.683594 86.929688 C 241.289062 87.09375 240.886719 87.214844 240.46875 87.296875 C 240.054688 87.382812 239.632812 87.421875 239.207031 87.421875 C 238.785156 87.421875 238.363281 87.382812 237.949219 87.296875 C 237.53125 87.214844 237.128906 87.09375 236.734375 86.929688 C 236.34375 86.769531 235.96875 86.570312 235.617188 86.332031 C 235.265625 86.097656 234.9375 85.828125 234.636719 85.527344 C 234.339844 85.230469 234.070312 84.902344 233.835938 84.550781 C 233.597656 84.195312 233.398438 83.824219 233.238281 83.433594 C 233.074219 83.039062 232.953125 82.636719 232.871094 82.21875 C 232.785156 81.804688 232.746094 81.382812 232.746094 80.957031 C 232.746094 80.535156 232.785156 80.113281 232.871094 79.699219 C 232.953125 79.28125 233.074219 78.878906 233.238281 78.484375 C 233.398438 78.09375 233.597656 77.71875 233.835938 77.367188 C 234.070312 77.015625 234.339844 76.6875 234.636719 76.386719 C 234.9375 76.089844 235.265625 75.820312 235.617188 75.585938 C 235.96875 75.347656 236.34375 75.148438 236.734375 74.988281 C 237.128906 74.824219 237.53125 74.703125 237.949219 74.621094 C 238.363281 74.535156 238.785156 74.496094 239.207031 74.496094 C 239.632812 74.496094 240.054688 74.535156 240.46875 74.621094 C 240.886719 74.703125 241.289062 74.824219 241.683594 74.988281 C 242.074219 75.148438 242.445312 75.347656 242.800781 75.585938 C 243.152344 75.820312 243.480469 76.089844 243.777344 76.386719 C 244.078125 76.6875 244.347656 77.015625 244.582031 77.367188 C 244.820312 77.71875 245.019531 78.09375 245.179688 78.484375 C 245.34375 78.878906 245.464844 79.28125 245.546875 79.699219 C 245.632812 80.113281 245.671875 80.535156 245.671875 80.957031 Z M 245.671875 80.957031 " fill-opacity="1" fill-rule="nonzero"/><path fill="#ffffff" d="M 297.382812 80.957031 C 297.382812 81.382812 297.339844 81.804688 297.257812 82.21875 C 297.175781 82.636719 297.050781 83.039062 296.890625 83.433594 C 296.726562 83.824219 296.527344 84.195312 296.292969 84.550781 C 296.054688 84.902344 295.789062 85.230469 295.488281 85.527344 C 295.1875 85.828125 294.859375 86.097656 294.507812 86.332031 C 294.15625 86.570312 293.78125 86.769531 293.390625 86.929688 C 293 87.09375 292.59375 87.214844 292.179688 87.296875 C 291.761719 87.382812 291.34375 87.421875 290.917969 87.421875 C 290.492188 87.421875 290.074219 87.382812 289.65625 87.296875 C 289.238281 87.214844 288.835938 87.09375 288.445312 86.929688 C 288.050781 86.769531 287.679688 86.570312 287.328125 86.332031 C 286.972656 86.097656 286.648438 85.828125 286.347656 85.527344 C 286.046875 85.230469 285.777344 84.902344 285.542969 84.550781 C 285.308594 84.195312 285.109375 83.824219 284.945312 83.433594 C 284.785156 83.039062 284.660156 82.636719 284.578125 82.21875 C 284.496094 81.804688 284.453125 81.382812 284.453125 80.957031 C 284.453125 80.535156 284.496094 80.113281 284.578125 79.699219 C 284.660156 79.28125 284.785156 78.878906 284.945312 78.484375 C 285.109375 78.09375 285.308594 77.71875 285.542969 77.367188 C 285.777344 77.015625 286.046875 76.6875 286.347656 76.386719 C 286.648438 76.089844 286.972656 75.820312 287.328125 75.585938 C 287.679688 75.347656 288.050781 75.148438 288.445312 74.988281 C 288.835938 74.824219 289.238281 74.703125 289.65625 74.621094 C 290.074219 74.535156 290.492188 74.496094 290.917969 74.496094 C 291.34375 74.496094 291.761719 74.535156 292.179688 74.621094 C 292.59375 74.703125 293 74.824219 293.390625 74.988281 C 293.78125 75.148438 294.15625 75.347656 294.507812 75.585938 C 294.859375 75.820312 295.1875 76.089844 295.488281 76.386719 C 295.789062 76.6875 296.054688 77.015625 296.292969 77.367188 C 296.527344 77.71875 296.726562 78.09375 296.890625 78.484375 C 297.050781 78.878906 297.175781 79.28125 297.257812 79.699219 C 297.339844 80.113281 297.382812 80.535156 297.382812 80.957031 Z M 297.382812 80.957031 " fill-opacity="1" fill-rule="nonzero"/></svg>