<svg xmlns="http://www.w3.org/2000/svg" xmlns:xlink="http://www.w3.org/1999/xlink" width="500" zoomAndPan="magnify" viewBox="0 0 375 374.999991" height="500" preserveAspectRatio="xMidYMid meet" version="1.0"><defs><clipPath id="fa66f6640e"><path d="M 141.730469 74.082031 L 291.730469 74.082031 L 291.730469 224.082031 L 141.730469 224.082031 Z M 141.730469 74.082031 " clip-rule="nonzero"/></clipPath><clipPath id="27a04ef732"><path d="M 141.730469 74.082031 L 141.730469 224.082031 L 291.730469 224.082031 Z M 141.730469 74.082031 " clip-rule="nonzero"/></clipPath><clipPath id="5257e62415"><path d="M 51.691406 152.082031 L 201.691406 152.082031 L 201.691406 302.082031 L 51.691406 302.082031 Z M 51.691406 152.082031 " clip-rule="nonzero"/></clipPath><clipPath id="a97dc47885"><path d="M 201.691406 302.082031 L 201.691406 152.082031 L 51.691406 152.082031 Z M 201.691406 302.082031 " clip-rule="nonzero"/></clipPath><clipPath id="0fad18c353"><path d="M 132.691406 140 L 215 140 L 215 221.832031 L 132.691406 221.832031 Z M 132.691406 140 " clip-rule="nonzero"/></clipPath></defs><g clip-path="url(#fa66f6640e)"><g clip-path="url(#27a04ef732)"><path fill="#000000" d="M 141.730469 74.082031 L 141.730469 224.082031 L 291.730469 224.082031 L 291.730469 74.082031 Z M 141.730469 74.082031 " fill-opacity="1" fill-rule="nonzero"/></g></g><g clip-path="url(#5257e62415)"><g clip-path="url(#a97dc47885)"><path fill="#000000" d="M 201.691406 302.082031 L 201.691406 152.082031 L 51.691406 152.082031 L 51.691406 302.082031 Z M 201.691406 302.082031 " fill-opacity="1" fill-rule="nonzero"/></g></g><g clip-path="url(#0fad18c353)"><path fill="#ffffff" d="M 212.941406 167.988281 L 202.175781 159.835938 L 202.175781 144.085938 C 202.175781 143.898438 202.136719 143.71875 202.066406 143.546875 C 201.996094 143.371094 201.890625 143.21875 201.757812 143.085938 C 201.625 142.953125 201.472656 142.851562 201.300781 142.78125 C 201.125 142.707031 200.945312 142.671875 200.757812 142.671875 L 189.777344 142.671875 C 189.589844 142.671875 189.410156 142.707031 189.234375 142.78125 C 189.0625 142.851562 188.910156 142.953125 188.777344 143.085938 C 188.644531 143.21875 188.542969 143.371094 188.46875 143.546875 C 188.398438 143.71875 188.363281 143.898438 188.363281 144.085938 L 188.363281 149.59375 L 177.410156 141.328125 C 176.898438 140.949219 176.339844 140.660156 175.734375 140.460938 C 175.128906 140.261719 174.507812 140.160156 173.871094 140.160156 C 173.234375 140.160156 172.613281 140.261719 172.007812 140.460938 C 171.40625 140.660156 170.847656 140.949219 170.335938 141.328125 L 134.800781 167.988281 C 134.273438 168.371094 133.835938 168.839844 133.496094 169.398438 C 133.15625 169.953125 132.933594 170.554688 132.835938 171.199219 C 132.789062 171.523438 132.773438 171.847656 132.792969 172.171875 C 132.808594 172.496094 132.859375 172.816406 132.941406 173.132812 C 133.023438 173.449219 133.136719 173.753906 133.277344 174.046875 C 133.421875 174.339844 133.589844 174.613281 133.789062 174.875 C 133.984375 175.132812 134.207031 175.371094 134.453125 175.585938 C 134.695312 175.800781 134.960938 175.988281 135.242188 176.148438 C 135.527344 176.3125 135.820312 176.445312 136.132812 176.546875 C 136.441406 176.652344 136.757812 176.722656 137.078125 176.761719 C 137.316406 176.777344 137.550781 176.777344 137.785156 176.761719 C 138.878906 176.761719 139.859375 176.433594 140.730469 175.773438 L 140.972656 175.585938 L 140.972656 219.921875 C 140.972656 220.109375 141.007812 220.289062 141.078125 220.464844 C 141.152344 220.636719 141.253906 220.789062 141.386719 220.921875 C 141.519531 221.054688 141.671875 221.15625 141.84375 221.230469 C 142.019531 221.300781 142.199219 221.335938 142.386719 221.335938 L 205.429688 221.335938 C 205.617188 221.335938 205.796875 221.300781 205.96875 221.230469 C 206.144531 221.15625 206.296875 221.054688 206.429688 220.921875 C 206.5625 220.789062 206.664062 220.636719 206.734375 220.464844 C 206.808594 220.289062 206.84375 220.109375 206.84375 219.921875 L 206.84375 175.644531 L 207.085938 175.828125 C 207.953125 176.488281 208.933594 176.820312 210.027344 176.820312 C 210.804688 176.8125 211.539062 176.636719 212.234375 176.289062 C 212.925781 175.941406 213.507812 175.457031 213.976562 174.835938 C 214.371094 174.320312 214.648438 173.746094 214.808594 173.113281 C 214.972656 172.484375 215.003906 171.84375 214.910156 171.199219 C 214.808594 170.554688 214.589844 169.953125 214.246094 169.398438 C 213.90625 168.839844 213.472656 168.371094 212.941406 167.988281 Z M 191.148438 145.460938 L 199.34375 145.460938 L 199.34375 157.785156 L 191.121094 151.628906 Z M 185.390625 218.550781 L 162.351562 218.550781 L 162.351562 179.648438 C 162.351562 179.417969 162.394531 179.195312 162.480469 178.980469 C 162.570312 178.765625 162.695312 178.574219 162.859375 178.410156 C 163.019531 178.246094 163.210938 178.117188 163.425781 178.027344 C 163.636719 177.9375 163.863281 177.894531 164.09375 177.894531 L 183.648438 177.894531 C 183.882812 177.894531 184.101562 177.9375 184.316406 178.027344 C 184.53125 178.113281 184.71875 178.242188 184.882812 178.402344 C 185.042969 178.566406 185.171875 178.753906 185.257812 178.96875 C 185.347656 179.183594 185.390625 179.402344 185.390625 179.636719 Z M 204.054688 218.550781 L 188.121094 218.550781 L 188.121094 179.648438 C 188.121094 179.355469 188.089844 179.066406 188.035156 178.777344 C 187.976562 178.488281 187.890625 178.210938 187.777344 177.941406 C 187.664062 177.667969 187.527344 177.410156 187.363281 177.167969 C 187.199219 176.925781 187.015625 176.699219 186.808594 176.492188 C 186.601562 176.285156 186.375 176.097656 186.132812 175.933594 C 185.886719 175.773438 185.628906 175.632812 185.359375 175.523438 C 185.089844 175.410156 184.808594 175.324219 184.523438 175.265625 C 184.234375 175.207031 183.945312 175.179688 183.648438 175.175781 L 164.09375 175.175781 C 163.800781 175.179688 163.511719 175.207031 163.222656 175.265625 C 162.933594 175.324219 162.65625 175.410156 162.382812 175.523438 C 162.113281 175.632812 161.855469 175.773438 161.613281 175.933594 C 161.367188 176.097656 161.144531 176.285156 160.9375 176.492188 C 160.726562 176.699219 160.542969 176.925781 160.378906 177.167969 C 160.214844 177.410156 160.078125 177.667969 159.964844 177.941406 C 159.851562 178.210938 159.769531 178.488281 159.710938 178.777344 C 159.652344 179.066406 159.621094 179.355469 159.621094 179.648438 L 159.621094 218.550781 L 143.6875 218.550781 L 143.6875 173.648438 L 173.871094 151.007812 L 204.054688 173.648438 Z M 211.738281 173.265625 C 211.5625 173.492188 211.347656 173.675781 211.097656 173.816406 C 210.847656 173.960938 210.582031 174.050781 210.296875 174.089844 C 210.011719 174.128906 209.730469 174.117188 209.453125 174.046875 C 209.171875 173.976562 208.917969 173.859375 208.683594 173.691406 L 174.722656 148.21875 C 174.476562 148.042969 174.203125 147.957031 173.898438 147.957031 C 173.597656 147.957031 173.324219 148.042969 173.078125 148.21875 L 139.0625 173.648438 C 138.582031 174.011719 138.042969 174.152344 137.449219 174.074219 C 136.863281 173.976562 136.390625 173.695312 136.03125 173.222656 C 135.6875 172.726562 135.5625 172.179688 135.664062 171.582031 C 135.757812 170.996094 136.039062 170.523438 136.511719 170.167969 L 171.976562 143.523438 C 172.535156 143.097656 173.167969 142.882812 173.871094 142.886719 C 174.570312 142.886719 175.203125 143.09375 175.769531 143.507812 L 211.300781 170.152344 C 211.777344 170.511719 212.058594 170.980469 212.148438 171.570312 C 212.238281 172.171875 212.101562 172.71875 211.738281 173.210938 Z M 211.738281 173.265625 " fill-opacity="1" fill-rule="nonzero"/></g></svg>