<svg xmlns="http://www.w3.org/2000/svg" xmlns:xlink="http://www.w3.org/1999/xlink" width="500" zoomAndPan="magnify" viewBox="0 0 375 374.999991" height="500" preserveAspectRatio="xMidYMid meet" version="1.0"><defs><clipPath id="053afda889"><path d="M 0 1.523438 L 375 1.523438 L 375 373.523438 L 0 373.523438 Z M 0 1.523438 " clip-rule="nonzero"/></clipPath></defs><g clip-path="url(#053afda889)"><path fill="#ffffff" d="M 103.542969 154.382812 C 116.105469 177.046875 130.585938 198.796875 149.382812 218.628906 C 168.246094 238.585938 191.699219 256.746094 222.058594 272.257812 C 224.308594 273.355469 226.4375 273.355469 228.355469 272.59375 C 231.242188 271.5 234.195312 269.097656 237.085938 266.207031 C 239.335938 263.953125 242.132812 260.367188 245.054688 256.441406 C 256.734375 241.078125 271.183594 222.007812 291.597656 231.558594 C 292.050781 231.769531 292.386719 232.015625 292.84375 232.195312 L 360.921875 271.347656 C 361.136719 271.46875 361.378906 271.679688 361.5625 271.804688 C 370.535156 277.976562 374.246094 287.5 374.335938 298.296875 C 374.335938 309.28125 370.292969 321.628906 364.359375 332.066406 C 356.511719 345.84375 344.953125 354.96875 331.628906 360.992188 C 318.945312 366.835938 304.828125 369.96875 291.261719 371.976562 C 269.96875 375.109375 250.011719 373.101562 229.601562 366.835938 C 209.644531 360.660156 189.539062 350.46875 167.574219 336.902344 L 165.960938 335.867188 C 155.894531 329.570312 145.003906 322.847656 134.328125 314.90625 C 95.265625 285.402344 55.449219 242.78125 29.5 195.875 C 7.75 156.511719 -4.113281 114.015625 2.367188 73.527344 C 5.957031 51.320312 15.476562 31.121094 32.085938 17.800781 C 46.566406 6.117188 66.066406 -0.269531 91.3125 1.980469 C 94.203125 2.195312 96.789062 3.867188 98.15625 6.359375 L 141.808594 80.160156 C 148.199219 88.433594 148.988281 96.648438 145.492188 104.859375 C 142.601562 111.582031 136.761719 117.789062 128.789062 123.566406 C 126.449219 125.574219 123.648438 127.613281 120.699219 129.742188 C 110.933594 136.832031 99.832031 145.015625 103.632812 154.625 Z M 103.542969 154.382812 " fill-opacity="1" fill-rule="nonzero"/></g></svg>