<svg xmlns="http://www.w3.org/2000/svg" xmlns:xlink="http://www.w3.org/1999/xlink" width="500" zoomAndPan="magnify" viewBox="0 0 375 374.999991" height="500" preserveAspectRatio="xMidYMid meet" version="1.0"><path fill="#ffffff" d="M 0 187.5 C 0 267.546875 50.171875 335.886719 120.785156 362.78125 C 119.0625 348.140625 117.238281 324 121.171875 307.066406 C 124.5625 292.5 143.0625 214.285156 143.0625 214.285156 C 143.0625 214.285156 137.484375 203.113281 137.484375 186.5625 C 137.484375 160.628906 152.519531 141.246094 171.253906 141.246094 C 187.191406 141.246094 194.875 153.207031 194.875 167.535156 C 194.875 183.550781 184.671875 207.488281 179.40625 229.695312 C 175.019531 248.269531 188.738281 263.421875 207.046875 263.421875 C 240.21875 263.421875 265.738281 228.433594 265.738281 177.941406 C 265.738281 133.234375 233.613281 102.003906 187.75 102.003906 C 134.664062 102.003906 103.492188 141.832031 103.492188 183.003906 C 103.492188 199.050781 109.65625 216.238281 117.378906 225.601562 C 117.867188 226.117188 118.242188 226.703125 118.503906 227.363281 C 118.765625 228.023438 118.894531 228.707031 118.894531 229.417969 C 118.894531 229.929688 118.820312 230.449219 118.679688 230.945312 C 117.261719 236.859375 114.097656 249.527344 113.496094 252.113281 C 112.667969 255.519531 110.792969 256.257812 107.242188 254.605469 C 83.933594 243.757812 69.367188 209.675781 69.367188 182.308594 C 69.367188 123.414062 112.140625 69.351562 192.679688 69.351562 C 257.429688 69.351562 307.761719 115.496094 307.761719 177.152344 C 307.761719 241.480469 267.210938 293.261719 210.902344 293.261719 C 191.976562 293.261719 174.214844 283.410156 168.121094 271.800781 C 168.121094 271.800781 158.761719 307.457031 156.488281 316.179688 C 152.085938 333.121094 139.863281 354.550781 132.289062 366.722656 C 149.75 372.113281 168.28125 375 187.5 375 C 291.050781 375 375 291.042969 375 187.5 C 375 83.957031 291.050781 0 187.5 0 C 83.949219 0 0 83.949219 0 187.5 Z M 0 187.5 " fill-opacity="1" fill-rule="nonzero"/></svg>