<svg xmlns="http://www.w3.org/2000/svg" xmlns:xlink="http://www.w3.org/1999/xlink" width="500" zoomAndPan="magnify" viewBox="0 0 375 374.999991" height="500" preserveAspectRatio="xMidYMid meet" version="1.0"><defs><clipPath id="e7ccce3a41"><path d="M 274 7.839844 L 368 7.839844 L 368 318 L 274 318 Z M 274 7.839844 " clip-rule="nonzero"/></clipPath><clipPath id="40bf152084"><path d="M 164 7.839844 L 257 7.839844 L 257 318 L 164 318 Z M 164 7.839844 " clip-rule="nonzero"/></clipPath><clipPath id="f9435d881f"><path d="M 6 341 L 336 341 L 336 367.089844 L 6 367.089844 Z M 6 341 " clip-rule="nonzero"/></clipPath></defs><g clip-path="url(#e7ccce3a41)"><path fill="#ffffff" d="M 281.433594 317.367188 C 277.800781 317.367188 274.855469 314.417969 274.855469 310.789062 L 274.855469 58.050781 C 274.855469 30.398438 295.542969 7.890625 320.980469 7.890625 C 346.414062 7.890625 367.101562 30.386719 367.101562 58.050781 L 367.101562 136.492188 C 367.101562 140.125 364.15625 143.074219 360.523438 143.074219 C 356.890625 143.074219 353.941406 140.125 353.941406 136.492188 L 353.941406 58.050781 C 353.941406 37.652344 339.148438 21.054688 320.980469 21.054688 C 302.808594 21.054688 288.015625 37.652344 288.015625 58.050781 L 288.015625 310.789062 C 288.015625 314.417969 285.066406 317.367188 281.433594 317.367188 Z M 281.433594 317.367188 " fill-opacity="1" fill-rule="nonzero"/></g><g clip-path="url(#40bf152084)"><path fill="#ffffff" d="M 170.707031 317.367188 C 167.074219 317.367188 164.125 314.417969 164.125 310.789062 L 164.125 58.050781 C 164.125 30.398438 184.816406 7.890625 210.25 7.890625 C 235.6875 7.890625 256.375 30.386719 256.375 58.050781 L 256.375 136.492188 C 256.375 140.125 253.425781 143.074219 249.796875 143.074219 C 246.164062 143.074219 243.214844 140.125 243.214844 136.492188 L 243.214844 58.050781 C 243.214844 37.652344 228.421875 21.054688 210.25 21.054688 C 192.078125 21.054688 177.285156 37.652344 177.285156 58.050781 L 177.285156 310.789062 C 177.285156 314.417969 174.339844 317.367188 170.707031 317.367188 Z M 170.707031 317.367188 " fill-opacity="1" fill-rule="nonzero"/></g><path fill="#ffffff" d="M 281.433594 143.0625 L 170.699219 143.0625 C 167.066406 143.0625 164.117188 140.117188 164.117188 136.484375 C 164.117188 132.851562 167.066406 129.902344 170.699219 129.902344 L 281.433594 129.902344 C 285.066406 129.902344 288.015625 132.851562 288.015625 136.484375 C 288.015625 140.117188 285.066406 143.0625 281.433594 143.0625 Z M 281.433594 143.0625 " fill-opacity="1" fill-rule="nonzero"/><path fill="#ffffff" d="M 281.433594 212.789062 L 170.699219 212.789062 C 167.066406 212.789062 164.117188 209.84375 164.117188 206.210938 C 164.117188 202.578125 167.066406 199.628906 170.699219 199.628906 L 281.433594 199.628906 C 285.066406 199.628906 288.015625 202.578125 288.015625 206.210938 C 288.015625 209.84375 285.066406 212.789062 281.433594 212.789062 Z M 281.433594 212.789062 " fill-opacity="1" fill-rule="nonzero"/><path fill="#ffffff" d="M 281.433594 273.796875 L 170.699219 273.796875 C 167.066406 273.796875 164.117188 270.847656 164.117188 267.214844 C 164.117188 263.582031 167.066406 260.636719 170.699219 260.636719 L 281.433594 260.636719 C 285.066406 260.636719 288.015625 263.582031 288.015625 267.214844 C 288.015625 270.847656 285.066406 273.796875 281.433594 273.796875 Z M 281.433594 273.796875 " fill-opacity="1" fill-rule="nonzero"/><path fill="#ffffff" d="M 368.445312 323.507812 C 357.582031 323.507812 351.765625 319.445312 347.097656 316.183594 C 342.984375 313.304688 340.007812 311.226562 333.289062 311.226562 C 326.566406 311.226562 323.59375 313.304688 319.476562 316.183594 C 314.800781 319.445312 308.992188 323.507812 298.132812 323.507812 C 287.269531 323.507812 281.460938 319.445312 276.785156 316.183594 C 272.667969 313.304688 269.695312 311.226562 262.972656 311.226562 C 256.253906 311.226562 253.277344 313.304688 249.164062 316.183594 C 244.496094 319.445312 238.679688 323.507812 227.816406 323.507812 C 216.953125 323.507812 211.144531 319.445312 206.46875 316.183594 C 202.355469 313.304688 199.378906 311.226562 192.660156 311.226562 C 185.9375 311.226562 182.972656 313.304688 178.847656 316.183594 C 174.179688 319.445312 168.363281 323.507812 157.5 323.507812 C 146.640625 323.507812 140.832031 319.445312 136.15625 316.183594 C 132.039062 313.304688 129.066406 311.226562 122.351562 311.226562 C 115.640625 311.226562 112.667969 313.304688 108.542969 316.183594 C 103.875 319.445312 98.058594 323.507812 87.195312 323.507812 C 76.332031 323.507812 70.523438 319.445312 65.847656 316.183594 C 61.734375 313.304688 58.757812 311.226562 52.039062 311.226562 C 48.40625 311.226562 45.457031 308.277344 45.457031 304.644531 C 45.457031 301.011719 48.40625 298.066406 52.039062 298.066406 C 62.902344 298.066406 68.710938 302.128906 73.386719 305.390625 C 77.5 308.269531 80.476562 310.347656 87.195312 310.347656 C 93.917969 310.347656 96.882812 308.269531 101.007812 305.390625 C 105.675781 302.128906 111.492188 298.066406 122.351562 298.066406 C 133.214844 298.066406 139.023438 302.128906 143.699219 305.390625 C 147.816406 308.269531 150.789062 310.347656 157.5 310.347656 C 164.214844 310.347656 167.1875 308.269531 171.3125 305.390625 C 175.980469 302.128906 181.796875 298.066406 192.660156 298.066406 C 203.519531 298.066406 209.328125 302.128906 214.007812 305.390625 C 218.121094 308.269531 221.09375 310.347656 227.816406 310.347656 C 234.539062 310.347656 237.511719 308.269531 241.625 305.390625 C 246.304688 302.128906 252.113281 298.066406 262.972656 298.066406 C 273.835938 298.066406 279.644531 302.128906 284.320312 305.390625 C 288.4375 308.269531 291.410156 310.347656 298.132812 310.347656 C 304.851562 310.347656 307.828125 308.269531 311.941406 305.390625 C 316.617188 302.128906 322.425781 298.066406 333.289062 298.066406 C 344.152344 298.066406 349.96875 302.128906 354.636719 305.390625 C 358.75 308.269531 361.726562 310.347656 368.445312 310.347656 C 372.078125 310.347656 375.027344 313.296875 375.027344 316.929688 C 375.027344 320.5625 372.078125 323.507812 368.445312 323.507812 Z M 368.445312 323.507812 " fill-opacity="1" fill-rule="nonzero"/><g clip-path="url(#f9435d881f)"><path fill="#ffffff" d="M 329.101562 367.089844 C 318.242188 367.089844 312.425781 363.027344 307.757812 359.761719 C 303.640625 356.886719 300.667969 354.804688 293.945312 354.804688 C 287.226562 354.804688 284.25 356.886719 280.136719 359.761719 C 275.460938 363.027344 269.652344 367.089844 258.789062 367.089844 C 247.925781 367.089844 242.117188 363.027344 237.441406 359.761719 C 233.328125 356.886719 230.351562 354.804688 223.632812 354.804688 C 216.910156 354.804688 213.9375 356.886719 209.820312 359.761719 C 205.144531 363.027344 199.335938 367.089844 188.472656 367.089844 C 177.613281 367.089844 171.804688 363.027344 167.125 359.761719 C 163.011719 356.886719 160.039062 354.804688 153.316406 354.804688 C 146.597656 354.804688 143.628906 356.886719 139.507812 359.761719 C 134.839844 363.027344 129.019531 367.089844 118.160156 367.089844 C 107.296875 367.089844 101.488281 363.027344 96.8125 359.761719 C 92.695312 356.886719 89.722656 354.804688 83.011719 354.804688 C 76.296875 354.804688 73.324219 356.886719 69.199219 359.761719 C 64.53125 363.027344 58.714844 367.089844 47.851562 367.089844 C 36.992188 367.089844 31.183594 363.027344 26.507812 359.761719 C 22.390625 356.886719 19.417969 354.804688 12.695312 354.804688 C 9.0625 354.804688 6.117188 351.859375 6.117188 348.226562 C 6.117188 344.59375 9.0625 341.644531 12.695312 341.644531 C 23.558594 341.644531 29.367188 345.707031 34.042969 348.972656 C 38.15625 351.847656 41.132812 353.929688 47.851562 353.929688 C 54.574219 353.929688 57.539062 351.847656 61.664062 348.972656 C 66.332031 345.707031 72.148438 341.644531 83.011719 341.644531 C 93.871094 341.644531 99.679688 345.707031 104.359375 348.972656 C 108.472656 351.847656 111.445312 353.929688 118.160156 353.929688 C 124.871094 353.929688 127.847656 351.847656 131.96875 348.972656 C 136.636719 345.707031 142.453125 341.644531 153.316406 341.644531 C 164.179688 341.644531 169.988281 345.707031 174.664062 348.972656 C 178.777344 351.847656 181.753906 353.929688 188.472656 353.929688 C 195.195312 353.929688 198.167969 351.847656 202.285156 348.972656 C 206.960938 345.707031 212.769531 341.644531 223.632812 341.644531 C 234.492188 341.644531 240.300781 345.707031 244.976562 348.972656 C 249.09375 351.847656 252.066406 353.929688 258.789062 353.929688 C 265.507812 353.929688 268.484375 351.847656 272.597656 348.972656 C 277.273438 345.707031 283.082031 341.644531 293.945312 341.644531 C 304.808594 341.644531 310.625 345.707031 315.292969 348.972656 C 319.40625 351.847656 322.382812 353.929688 329.101562 353.929688 C 332.734375 353.929688 335.683594 356.875 335.683594 360.507812 C 335.683594 364.140625 332.734375 367.089844 329.101562 367.089844 Z M 329.101562 367.089844 " fill-opacity="1" fill-rule="nonzero"/></g><path fill="#ffffff" d="M 73.351562 223.679688 C 32.902344 223.679688 0 189.453125 0 147.378906 C 0 105.308594 32.902344 71.074219 73.351562 71.074219 C 113.796875 71.074219 146.699219 105.300781 146.699219 147.371094 C 146.699219 189.441406 113.796875 223.671875 73.351562 223.671875 Z M 73.351562 84.234375 C 40.160156 84.234375 13.160156 112.554688 13.160156 147.371094 C 13.160156 182.1875 40.160156 210.507812 73.351562 210.507812 C 106.542969 210.507812 133.539062 182.1875 133.539062 147.371094 C 133.539062 112.554688 106.542969 84.234375 73.351562 84.234375 Z M 73.351562 84.234375 " fill-opacity="1" fill-rule="nonzero"/><path fill="#ffffff" d="M 73.351562 184.460938 C 53.617188 184.460938 37.5625 167.824219 37.5625 147.371094 C 37.5625 126.917969 53.617188 110.285156 73.351562 110.285156 C 93.082031 110.285156 109.140625 126.917969 109.140625 147.371094 C 109.140625 167.824219 93.082031 184.460938 73.351562 184.460938 Z M 73.351562 123.453125 C 60.875 123.453125 50.722656 134.183594 50.722656 147.378906 C 50.722656 160.578125 60.875 171.308594 73.351562 171.308594 C 85.828125 171.308594 95.980469 160.578125 95.980469 147.378906 C 95.980469 134.183594 85.828125 123.453125 73.351562 123.453125 Z M 73.351562 123.453125 " fill-opacity="1" fill-rule="nonzero"/><path fill="#ffffff" d="M 34.550781 210.894531 C 33.339844 210.894531 32.113281 210.5625 31.015625 209.859375 C 27.953125 207.902344 27.058594 203.832031 29.007812 200.769531 L 49.84375 168.132812 C 51.800781 165.070312 55.871094 164.175781 58.933594 166.121094 C 61.996094 168.078125 62.890625 172.148438 60.945312 175.210938 L 40.105469 207.851562 C 38.851562 209.816406 36.726562 210.886719 34.550781 210.886719 Z M 34.550781 210.894531 " fill-opacity="1" fill-rule="nonzero"/><path fill="#ffffff" d="M 112.148438 210.824219 C 109.980469 210.824219 107.851562 209.753906 106.59375 207.789062 L 85.757812 175.148438 C 83.800781 172.089844 84.695312 168.015625 87.765625 166.058594 C 90.828125 164.105469 94.898438 165 96.855469 168.070312 L 117.695312 200.707031 C 119.652344 203.769531 118.753906 207.84375 115.683594 209.796875 C 114.589844 210.5 113.359375 210.832031 112.148438 210.832031 Z M 112.148438 210.824219 " fill-opacity="1" fill-rule="nonzero"/><path fill="#ffffff" d="M 55.40625 130.050781 C 53.230469 130.050781 51.109375 128.980469 49.855469 127.015625 L 29.015625 94.375 C 27.058594 91.316406 27.953125 87.242188 31.023438 85.285156 C 34.085938 83.332031 38.15625 84.226562 40.113281 87.296875 L 60.953125 119.933594 C 62.910156 122.996094 62.015625 127.070312 58.945312 129.023438 C 57.847656 129.726562 56.617188 130.0625 55.40625 130.0625 Z M 55.40625 130.050781 " fill-opacity="1" fill-rule="nonzero"/><path fill="#ffffff" d="M 91.300781 130.113281 C 90.089844 130.113281 88.863281 129.78125 87.765625 129.078125 C 84.703125 127.121094 83.808594 123.050781 85.757812 119.988281 L 106.59375 87.347656 C 108.550781 84.285156 112.621094 83.390625 115.683594 85.339844 C 118.746094 87.289062 119.640625 91.367188 117.695312 94.429688 L 96.855469 127.070312 C 95.601562 129.035156 93.476562 130.105469 91.300781 130.105469 Z M 91.300781 130.113281 " fill-opacity="1" fill-rule="nonzero"/></svg>