<svg xmlns="http://www.w3.org/2000/svg" xmlns:xlink="http://www.w3.org/1999/xlink" width="500" zoomAndPan="magnify" viewBox="0 0 375 374.999991" height="500" preserveAspectRatio="xMidYMid meet" version="1.0"><path fill="#ffffff" d="M 187.5 0 C 291.054688 0 375 83.945312 375 187.5 C 375 291.054688 291.054688 375 187.5 375 C 83.945312 375 0 291.054688 0 187.5 C 0 83.945312 83.945312 0 187.5 0 Z M 277.746094 102.605469 L 244.292969 271.265625 C 244.292969 271.265625 239.617188 282.960938 226.75 277.34375 L 149.789062 216.757812 C 149.789062 216.757812 235.40625 139.796875 238.914062 136.523438 C 242.421875 133.25 241.253906 132.546875 241.253906 132.546875 C 241.488281 128.570312 234.9375 132.546875 234.9375 132.546875 L 121.484375 204.59375 L 74.234375 188.6875 C 74.234375 188.6875 66.980469 186.113281 66.28125 180.5 C 65.578125 174.886719 74.46875 171.84375 74.46875 171.84375 L 262.308594 98.160156 C 262.308594 98.160156 277.746094 91.375 277.746094 102.605469 Z M 179.15625 240.855469 L 148.621094 268.691406 C 148.621094 268.691406 146.234375 270.503906 143.621094 269.371094 L 149.46875 217.660156 Z M 179.15625 240.855469 " fill-opacity="1" fill-rule="evenodd"/></svg>