<svg xmlns="http://www.w3.org/2000/svg" xmlns:xlink="http://www.w3.org/1999/xlink" width="500" zoomAndPan="magnify" viewBox="0 0 375 374.999991" height="500" preserveAspectRatio="xMidYMid meet" version="1.0"><defs><clipPath id="5af3591f1b"><path d="M 26.277344 0 L 353.277344 0 L 353.277344 375 L 26.277344 375 Z M 26.277344 0 " clip-rule="nonzero"/></clipPath></defs><g clip-path="url(#5af3591f1b)"><path fill="#ffffff" d="M 304.382812 75.191406 C 284.1875 62.027344 269.617188 40.953125 265.070312 16.402344 C 264.089844 11.097656 263.542969 5.636719 263.542969 0.0507812 L 199.09375 0.0507812 L 198.984375 258.351562 C 197.90625 287.28125 174.097656 310.492188 144.914062 310.492188 C 135.84375 310.492188 127.304688 308.230469 119.78125 304.265625 C 102.535156 295.195312 90.730469 277.117188 90.730469 256.320312 C 90.730469 226.445312 115.039062 202.136719 144.90625 202.136719 C 150.488281 202.136719 155.832031 203.058594 160.890625 204.636719 L 160.890625 138.84375 C 155.652344 138.121094 150.335938 137.6875 144.90625 137.6875 C 79.496094 137.6875 26.277344 190.898438 26.277344 256.320312 C 26.277344 296.453125 46.328125 331.972656 76.929688 353.449219 C 96.191406 366.984375 119.636719 374.949219 144.914062 374.949219 C 210.332031 374.949219 263.542969 321.730469 263.542969 256.320312 L 263.542969 125.335938 C 288.820312 143.476562 319.796875 154.167969 353.21875 154.167969 L 353.21875 89.710938 C 335.214844 89.710938 318.449219 84.367188 304.382812 75.191406 Z M 304.382812 75.191406 " fill-opacity="1" fill-rule="nonzero"/></g></svg>