<svg xmlns="http://www.w3.org/2000/svg" xmlns:xlink="http://www.w3.org/1999/xlink" width="500" zoomAndPan="magnify" viewBox="0 0 375 374.999991" height="500" preserveAspectRatio="xMidYMid meet" version="1.0"><path fill="#000000" d="M 184.652344 153.539062 L 184.566406 153.539062 C 182.0625 153.542969 179.566406 153.417969 177.078125 153.171875 C 174.585938 152.925781 172.113281 152.558594 169.660156 152.066406 C 167.207031 151.574219 164.785156 150.960938 162.394531 150.230469 C 160 149.5 157.648438 148.648438 155.339844 147.683594 C 153.035156 146.71875 150.777344 145.640625 148.578125 144.453125 C 146.375 143.261719 144.238281 141.964844 142.167969 140.566406 C 140.09375 139.164062 138.097656 137.664062 136.171875 136.0625 C 134.25 134.460938 132.410156 132.773438 130.65625 130.988281 C 127.105469 127.421875 123.933594 123.546875 121.144531 119.359375 C 118.351562 115.171875 115.996094 110.753906 114.070312 106.105469 C 112.144531 101.453125 110.6875 96.664062 109.703125 91.730469 C 108.714844 86.796875 108.214844 81.8125 108.207031 76.78125 C 108.101562 56.121094 116.996094 35.820312 132.609375 21.121094 C 147.296875 7.277344 166.394531 -0.0078125 185.027344 1.15625 C 203.417969 0.164062 222.289062 7.503906 236.835938 21.3125 C 252.363281 36.042969 261.195312 56.328125 261.097656 76.96875 C 261.085938 82 260.585938 86.980469 259.597656 91.914062 C 258.609375 96.84375 257.148438 101.632812 255.21875 106.277344 C 253.285156 110.921875 250.921875 115.335938 248.125 119.515625 C 245.324219 123.695312 242.144531 127.5625 238.585938 131.117188 C 236.828125 132.894531 234.984375 134.582031 233.058594 136.175781 C 231.132812 137.769531 229.128906 139.265625 227.054688 140.660156 C 224.980469 142.054688 222.84375 143.34375 220.640625 144.527344 C 218.4375 145.710938 216.179688 146.785156 213.871094 147.746094 C 211.5625 148.703125 209.210938 149.546875 206.816406 150.273438 C 204.425781 151 202.003906 151.609375 199.550781 152.09375 C 197.097656 152.582031 194.625 152.945312 192.136719 153.1875 C 189.648438 153.429688 187.152344 153.546875 184.652344 153.539062 Z M 184.652344 153.539062 " fill-opacity="1" fill-rule="nonzero"/><path fill="#000000" d="M 184.257812 374.972656 C 175.789062 374.964844 167.351562 374.46875 158.941406 373.488281 C 150.527344 372.507812 142.203125 371.050781 133.957031 369.113281 C 125.714844 367.171875 117.609375 364.769531 109.644531 361.894531 C 101.679688 359.023438 93.902344 355.707031 86.320312 351.941406 C 66.609375 342.117188 57.757812 334.191406 58.484375 327.007812 L 67.925781 233.378906 C 67.953125 218.582031 73.445312 204.554688 83.800781 192.792969 C 93.832031 181.410156 108.078125 172.929688 123.910156 168.921875 C 130.96875 167.171875 138.132812 166.3125 145.402344 166.351562 L 226.589844 166.351562 C 246.285156 167.550781 264.5625 175.054688 278.054688 187.476562 C 291.542969 199.902344 299.085938 216.242188 299.136719 233.347656 L 310.347656 326.242188 C 311.210938 333.464844 302.585938 341.421875 283.175781 351.292969 C 275.582031 355.140625 267.789062 358.535156 259.796875 361.476562 C 251.808594 364.417969 243.671875 366.882812 235.394531 368.878906 C 227.117188 370.871094 218.75 372.375 210.296875 373.394531 C 201.84375 374.414062 193.359375 374.9375 184.84375 374.96875 Z M 184.257812 374.972656 " fill-opacity="1" fill-rule="nonzero"/></svg>