<svg xmlns="http://www.w3.org/2000/svg" xmlns:xlink="http://www.w3.org/1999/xlink" width="500" zoomAndPan="magnify" viewBox="0 0 375 374.999991" height="500" preserveAspectRatio="xMidYMid meet" version="1.0"><path fill="#ffffff" d="M 325.179688 36.578125 C 315.855469 27.976562 278.203125 0.636719 194.320312 0.269531 C 194.320312 0.269531 95.398438 -5.699219 47.183594 38.53125 C 20.339844 65.382812 10.890625 104.671875 9.902344 153.367188 C 8.898438 202.074219 7.617188 293.347656 95.59375 318.105469 L 95.683594 318.105469 L 95.625 355.867188 C 95.625 355.867188 95.0625 371.15625 105.132812 374.273438 C 117.3125 378.054688 124.453125 366.4375 136.082031 353.90625 C 142.464844 347.027344 151.273438 336.929688 157.917969 329.207031 C 218.085938 334.277344 264.367188 322.699219 269.625 320.992188 C 281.769531 317.050781 350.523438 308.238281 361.707031 216.972656 C 373.25 122.898438 356.125 63.398438 325.179688 36.578125 Z M 201.4375 214.78125 C 201.4375 214.78125 208.101562 215.347656 211.699219 210.921875 L 218.695312 202.121094 C 222.070312 197.746094 230.222656 194.964844 238.199219 199.410156 C 244.175781 202.816406 249.988281 206.542969 255.585938 210.527344 C 260.882812 214.417969 271.722656 223.46875 271.757812 223.46875 C 276.921875 227.828125 278.113281 234.226562 274.597656 240.980469 C 274.597656 241.023438 274.570312 241.089844 274.570312 241.128906 C 270.710938 247.828125 265.78125 253.894531 260.007812 259.058594 C 259.945312 259.085938 259.945312 259.125 259.878906 259.160156 C 254.859375 263.355469 249.929688 265.738281 245.089844 266.316406 C 244.535156 266.410156 243.96875 266.460938 243.398438 266.460938 C 243.246094 266.460938 243.082031 266.457031 242.929688 266.449219 L 242.738281 266.449219 C 240.667969 266.449219 238.601562 266.117188 236.636719 265.480469 L 236.476562 265.246094 C 229.011719 263.144531 216.554688 257.878906 195.8125 246.429688 C 183.785156 239.875 172.398438 232.347656 161.652344 223.851562 C 156.269531 219.644531 151.113281 215.054688 146.277344 210.242188 L 145.246094 209.210938 L 145.238281 209.195312 L 144.71875 208.683594 L 144.199219 208.160156 C 139.359375 203.304688 134.816406 198.183594 130.570312 192.804688 C 122.152344 182.101562 114.515625 170.589844 108.003906 158.628906 C 96.554688 137.878906 91.289062 125.425781 89.179688 117.957031 L 88.953125 117.796875 C 88.316406 115.832031 87.984375 113.773438 87.984375 111.710938 L 87.984375 111.503906 C 87.976562 111.335938 87.976562 111.160156 87.976562 110.992188 C 87.976562 110.433594 88.023438 109.886719 88.117188 109.34375 C 88.726562 104.507812 91.113281 99.574219 95.28125 94.542969 C 95.316406 94.476562 95.355469 94.476562 95.382812 94.410156 C 100.582031 88.59375 106.566406 83.738281 113.328125 79.847656 C 113.355469 79.847656 113.429688 79.8125 113.464844 79.8125 C 120.21875 76.296875 126.621094 77.492188 130.980469 82.625 C 131.015625 82.660156 140.046875 93.507812 143.921875 98.804688 C 147.898438 104.386719 151.625 110.230469 155.023438 116.199219 C 159.46875 124.167969 156.6875 132.335938 152.320312 135.703125 L 143.511719 142.707031 C 139.066406 146.292969 139.652344 152.960938 139.652344 152.960938 C 139.652344 152.960938 152.695312 202.339844 201.4375 214.78125 Z M 282.832031 169.128906 C 282.839844 171.746094 280.730469 173.871094 278.121094 173.875 C 277.8125 173.878906 277.503906 173.847656 277.199219 173.789062 C 276.894531 173.730469 276.601562 173.640625 276.3125 173.523438 C 276.027344 173.40625 275.753906 173.261719 275.492188 173.089844 C 275.234375 172.917969 274.996094 172.722656 274.777344 172.503906 C 274.554688 172.285156 274.359375 172.046875 274.183594 171.789062 C 274.011719 171.53125 273.863281 171.261719 273.746094 170.976562 C 273.625 170.6875 273.535156 170.394531 273.472656 170.089844 C 273.410156 169.785156 273.378906 169.476562 273.375 169.167969 C 273.265625 154.722656 271.0625 141.832031 266.761719 130.496094 C 262.523438 119.3125 256.214844 109.636719 247.84375 101.476562 C 239.4375 93.28125 230.003906 87.113281 219.542969 82.96875 C 209.027344 78.808594 197.484375 76.675781 184.921875 76.589844 C 184.613281 76.589844 184.304688 76.558594 184 76.496094 C 183.695312 76.433594 183.402344 76.34375 183.113281 76.226562 C 182.828125 76.105469 182.554688 75.960938 182.300781 75.785156 C 182.042969 75.613281 181.804688 75.417969 181.585938 75.195312 C 181.367188 74.976562 181.171875 74.738281 181 74.476562 C 180.828125 74.21875 180.683594 73.945312 180.566406 73.660156 C 180.449219 73.371094 180.359375 73.078125 180.300781 72.773438 C 180.242188 72.46875 180.210938 72.160156 180.210938 71.851562 C 180.214844 71.539062 180.246094 71.234375 180.304688 70.929688 C 180.367188 70.625 180.457031 70.328125 180.578125 70.042969 C 180.699219 69.753906 180.84375 69.484375 181.019531 69.226562 C 181.191406 68.96875 181.386719 68.730469 181.609375 68.511719 C 181.828125 68.292969 182.070312 68.097656 182.328125 67.925781 C 182.585938 67.753906 182.859375 67.609375 183.148438 67.492188 C 183.433594 67.375 183.730469 67.285156 184.035156 67.226562 C 184.339844 67.167969 184.648438 67.140625 184.957031 67.140625 C 198.777344 67.234375 211.472656 69.574219 223.023438 74.148438 C 234.632812 78.75 245.105469 85.597656 254.441406 94.695312 C 263.816406 103.835938 270.878906 114.660156 275.617188 127.164062 C 280.304688 139.511719 282.707031 153.507812 282.832031 169.128906 Z M 257.90625 159.5 C 257.863281 162.105469 255.703125 164.179688 253.09375 164.128906 C 252.785156 164.121094 252.476562 164.085938 252.175781 164.019531 C 251.871094 163.953125 251.578125 163.859375 251.292969 163.734375 C 251.007812 163.609375 250.738281 163.460938 250.484375 163.28125 C 250.230469 163.105469 249.992188 162.902344 249.777344 162.679688 C 249.5625 162.457031 249.371094 162.214844 249.203125 161.953125 C 249.035156 161.691406 248.894531 161.414062 248.78125 161.125 C 248.671875 160.835938 248.585938 160.539062 248.53125 160.234375 C 248.476562 159.925781 248.453125 159.621094 248.460938 159.308594 C 248.8125 143.230469 244.085938 129.84375 234.300781 119.148438 C 229.417969 113.816406 223.570312 109.671875 216.769531 106.699219 C 209.859375 103.683594 201.929688 101.859375 192.964844 101.199219 C 190.355469 101.015625 188.394531 98.753906 188.578125 96.136719 C 188.597656 95.828125 188.648438 95.523438 188.730469 95.222656 C 188.8125 94.921875 188.925781 94.632812 189.0625 94.355469 C 189.203125 94.078125 189.367188 93.816406 189.558594 93.570312 C 189.746094 93.324219 189.960938 93.101562 190.195312 92.898438 C 190.429688 92.695312 190.679688 92.515625 190.953125 92.359375 C 191.222656 92.207031 191.503906 92.082031 191.796875 91.980469 C 192.09375 91.882812 192.394531 91.816406 192.703125 91.777344 C 193.011719 91.738281 193.320312 91.730469 193.628906 91.75 C 203.664062 92.484375 212.628906 94.5625 220.546875 98.027344 C 228.558594 101.527344 235.460938 106.433594 241.265625 112.769531 C 252.765625 125.339844 258.3125 140.910156 257.90625 159.5 Z M 233.578125 151.023438 C 233.589844 151.335938 233.574219 151.644531 233.527344 151.949219 C 233.480469 152.257812 233.40625 152.558594 233.300781 152.847656 C 233.195312 153.140625 233.0625 153.417969 232.902344 153.683594 C 232.738281 153.953125 232.554688 154.199219 232.347656 154.429688 C 232.136719 154.65625 231.90625 154.863281 231.65625 155.050781 C 231.410156 155.234375 231.144531 155.390625 230.863281 155.523438 C 230.582031 155.65625 230.289062 155.757812 229.988281 155.835938 C 229.6875 155.910156 229.382812 155.953125 229.070312 155.96875 C 228.761719 155.984375 228.453125 155.96875 228.144531 155.921875 C 227.839844 155.875 227.539062 155.800781 227.246094 155.695312 C 226.953125 155.589844 226.671875 155.457031 226.40625 155.296875 C 226.140625 155.136719 225.890625 154.953125 225.664062 154.742188 C 225.433594 154.535156 225.226562 154.304688 225.039062 154.054688 C 224.855469 153.804688 224.699219 153.539062 224.566406 153.257812 C 224.433594 152.976562 224.328125 152.683594 224.253906 152.382812 C 224.179688 152.082031 224.136719 151.773438 224.121094 151.464844 C 223.71875 143.355469 221.566406 137.285156 217.660156 133.242188 C 213.800781 129.257812 208 127.058594 200.257812 126.65625 C 199.949219 126.640625 199.640625 126.597656 199.339844 126.519531 C 199.039062 126.445312 198.75 126.339844 198.46875 126.207031 C 198.1875 126.074219 197.921875 125.914062 197.671875 125.730469 C 197.421875 125.542969 197.195312 125.335938 196.984375 125.105469 C 196.777344 124.875 196.59375 124.625 196.433594 124.359375 C 196.273438 124.09375 196.140625 123.8125 196.039062 123.519531 C 195.933594 123.226562 195.859375 122.925781 195.8125 122.617188 C 195.769531 122.3125 195.753906 122.003906 195.769531 121.691406 C 195.90625 119.085938 198.128906 117.070312 200.734375 117.210938 C 210.964844 117.742188 218.882812 120.902344 224.480469 126.6875 C 230.015625 132.414062 233.050781 140.53125 233.578125 151.023438 Z M 335.375 210.226562 C 325.933594 286.429688 270.175781 291.21875 259.894531 294.515625 C 255.519531 295.929688 214.878906 306.035156 163.761719 302.703125 C 163.761719 302.703125 125.675781 348.648438 113.78125 360.59375 C 111.921875 362.460938 109.738281 363.214844 108.28125 362.84375 C 106.230469 362.34375 105.675781 359.917969 105.695312 356.375 C 105.726562 351.304688 106.019531 293.621094 106.019531 293.621094 C 106.019531 293.621094 105.972656 293.621094 106.019531 293.621094 C 31.589844 272.953125 35.933594 195.269531 36.773438 154.585938 C 37.617188 113.90625 45.265625 80.582031 67.960938 58.167969 C 108.75 21.226562 192.773438 26.746094 192.773438 26.746094 C 263.722656 27.054688 297.730469 48.421875 305.609375 55.582031 C 331.785156 77.996094 345.125 131.628906 335.375 210.203125 Z M 335.375 210.226562 " fill-opacity="1" fill-rule="nonzero"/></svg>