<svg xmlns="http://www.w3.org/2000/svg" xmlns:xlink="http://www.w3.org/1999/xlink" width="500" zoomAndPan="magnify" viewBox="0 0 375 374.999991" height="500" preserveAspectRatio="xMidYMid meet" version="1.0"><defs><clipPath id="3b506b9012"><path d="M 0 0 L 373.5 0 L 373.5 375 L 0 375 Z M 0 0 " clip-rule="nonzero"/></clipPath></defs><g clip-path="url(#3b506b9012)"><path fill="#ffffff" d="M 318.988281 54.492188 C 283.914062 19.371094 237.257812 0.0195312 187.550781 0 C 85.125 0 1.761719 83.351562 1.726562 185.808594 C 1.710938 218.558594 10.273438 250.527344 26.53125 278.703125 L 0.167969 375 L 98.675781 349.160156 C 125.8125 363.96875 156.375 371.765625 187.472656 371.773438 L 187.550781 371.773438 C 289.960938 371.773438 373.332031 288.414062 373.367188 185.957031 C 373.382812 136.304688 354.078125 89.625 318.988281 54.5 Z M 187.550781 340.394531 L 187.488281 340.394531 C 159.777344 340.386719 132.59375 332.9375 108.875 318.867188 L 103.238281 315.519531 L 44.78125 330.851562 L 60.378906 273.855469 L 56.710938 268.011719 C 41.25 243.417969 33.082031 214.996094 33.097656 185.816406 C 33.132812 100.664062 102.417969 31.378906 187.613281 31.378906 C 228.867188 31.398438 267.644531 47.480469 296.804688 76.679688 C 325.96875 105.867188 342.011719 144.679688 341.996094 185.941406 C 341.960938 271.101562 272.675781 340.386719 187.550781 340.386719 Z M 272.265625 224.726562 C 267.625 222.402344 244.796875 211.171875 240.539062 209.625 C 236.28125 208.074219 233.1875 207.296875 230.097656 211.949219 C 227.003906 216.601562 218.105469 227.058594 215.394531 230.152344 C 212.6875 233.253906 209.976562 233.636719 205.335938 231.308594 C 200.695312 228.984375 185.734375 224.085938 167.992188 208.269531 C 154.191406 195.957031 144.871094 180.753906 142.164062 176.105469 C 139.457031 171.453125 141.878906 168.941406 144.195312 166.632812 C 146.28125 164.546875 148.839844 161.207031 151.164062 158.5 C 153.488281 155.789062 154.253906 153.847656 155.804688 150.753906 C 157.355469 147.652344 156.582031 144.949219 155.421875 142.621094 C 154.265625 140.296875 144.980469 117.441406 141.105469 108.148438 C 137.335938 99.097656 133.503906 100.324219 130.664062 100.175781 C 127.953125 100.039062 124.863281 100.015625 121.761719 100.015625 C 118.660156 100.015625 113.636719 101.171875 109.375 105.824219 C 105.117188 110.472656 93.125 121.710938 93.125 144.554688 C 93.125 167.398438 109.757812 189.488281 112.085938 192.589844 C 114.410156 195.6875 144.828125 242.582031 191.398438 262.699219 C 202.476562 267.484375 211.125 270.34375 217.871094 272.484375 C 228.992188 276.019531 239.113281 275.523438 247.113281 274.328125 C 256.035156 272.992188 274.582031 263.09375 278.449219 252.246094 C 282.316406 241.40625 282.316406 232.101562 281.160156 230.167969 C 280 228.238281 276.902344 227.070312 272.257812 224.742188 Z M 272.265625 224.726562 " fill-opacity="1" fill-rule="evenodd"/></g></svg>