<svg xmlns="http://www.w3.org/2000/svg" xmlns:xlink="http://www.w3.org/1999/xlink" width="500" zoomAndPan="magnify" viewBox="0 0 375 374.999991" height="500" preserveAspectRatio="xMidYMid meet" version="1.0"><defs><clipPath id="3586f8e9a4"><path d="M 2 50.90625 L 373 50.90625 L 373 161 L 2 161 Z M 2 50.90625 " clip-rule="nonzero"/></clipPath><clipPath id="35121779a6"><path d="M 163 276 L 212 276 L 212 323.90625 L 163 323.90625 Z M 163 276 " clip-rule="nonzero"/></clipPath></defs><g clip-path="url(#3586f8e9a4)"><path fill="#ffffff" d="M 366.890625 125.261719 C 342.664062 101.035156 314.421875 82.277344 282.941406 69.5 C 252.546875 57.164062 220.441406 50.910156 187.511719 50.910156 C 154.578125 50.910156 122.476562 57.164062 92.078125 69.5 C 60.605469 82.277344 32.363281 101.035156 8.136719 125.261719 C 0.0351562 133.367188 0.0351562 146.507812 8.136719 154.613281 C 16.242188 162.714844 29.382812 162.714844 37.484375 154.613281 C 120.210938 71.886719 254.8125 71.886719 337.539062 154.613281 C 341.589844 158.664062 346.902344 160.6875 352.214844 160.6875 C 357.523438 160.6875 362.835938 158.664062 366.886719 154.613281 C 374.992188 146.507812 374.992188 133.367188 366.886719 125.261719 Z M 366.890625 125.261719 " fill-opacity="1" fill-rule="nonzero"/></g><path fill="#ffffff" d="M 187.464844 126.453125 C 139.425781 126.453125 94.234375 145.183594 60.21875 179.195312 C 52.554688 186.859375 52.554688 199.28125 60.21875 206.941406 C 67.878906 214.601562 80.300781 214.601562 87.964844 206.941406 C 142.828125 152.078125 232.097656 152.078125 286.957031 206.941406 C 290.785156 210.773438 295.808594 212.6875 300.828125 212.6875 C 305.851562 212.6875 310.871094 210.773438 314.703125 206.941406 C 322.363281 199.28125 322.363281 186.859375 314.703125 179.195312 C 280.6875 145.183594 235.496094 126.453125 187.453125 126.453125 Z M 187.464844 126.453125 " fill-opacity="1" fill-rule="nonzero"/><path fill="#ffffff" d="M 187.464844 197.261719 C 158.257812 197.261719 130.78125 208.652344 110.101562 229.328125 C 102.480469 236.949219 102.480469 249.308594 110.101562 256.929688 C 117.726562 264.550781 130.082031 264.550781 137.703125 256.929688 C 165.144531 229.492188 209.789062 229.492188 237.226562 256.929688 C 241.039062 260.742188 246.03125 262.648438 251.027344 262.648438 C 256.023438 262.648438 261.019531 260.742188 264.828125 256.929688 C 272.449219 249.308594 272.449219 236.949219 264.828125 229.328125 C 244.152344 208.652344 216.675781 197.261719 187.464844 197.261719 Z M 187.464844 197.261719 " fill-opacity="1" fill-rule="nonzero"/><g clip-path="url(#35121779a6)"><path fill="#ffffff" d="M 211.214844 300.054688 C 211.214844 300.839844 211.175781 301.625 211.101562 302.410156 C 211.023438 303.191406 210.90625 303.96875 210.753906 304.742188 C 210.601562 305.511719 210.410156 306.273438 210.179688 307.027344 C 209.953125 307.78125 209.6875 308.519531 209.386719 309.246094 C 209.085938 309.972656 208.75 310.683594 208.378906 311.378906 C 208.007812 312.070312 207.605469 312.746094 207.167969 313.398438 C 206.730469 314.054688 206.261719 314.6875 205.761719 315.292969 C 205.265625 315.902344 204.734375 316.484375 204.179688 317.039062 C 203.625 317.597656 203.042969 318.125 202.433594 318.625 C 201.824219 319.121094 201.195312 319.589844 200.539062 320.027344 C 199.886719 320.464844 199.210938 320.867188 198.519531 321.238281 C 197.824219 321.609375 197.113281 321.945312 196.386719 322.246094 C 195.660156 322.546875 194.921875 322.8125 194.167969 323.042969 C 193.414062 323.269531 192.652344 323.460938 191.878906 323.613281 C 191.109375 323.769531 190.332031 323.882812 189.550781 323.960938 C 188.765625 324.039062 187.980469 324.074219 187.195312 324.074219 C 186.40625 324.074219 185.621094 324.039062 184.839844 323.960938 C 184.058594 323.882812 183.28125 323.769531 182.507812 323.613281 C 181.738281 323.460938 180.972656 323.269531 180.222656 323.042969 C 179.46875 322.8125 178.730469 322.546875 178.003906 322.246094 C 177.273438 321.945312 176.566406 321.609375 175.871094 321.238281 C 175.175781 320.867188 174.503906 320.464844 173.847656 320.027344 C 173.195312 319.589844 172.5625 319.121094 171.957031 318.625 C 171.347656 318.125 170.765625 317.597656 170.207031 317.039062 C 169.652344 316.484375 169.125 315.902344 168.625 315.292969 C 168.125 314.6875 167.660156 314.054688 167.222656 313.398438 C 166.785156 312.746094 166.378906 312.070312 166.007812 311.378906 C 165.640625 310.683594 165.304688 309.972656 165 309.246094 C 164.699219 308.519531 164.4375 307.78125 164.207031 307.027344 C 163.980469 306.273438 163.789062 305.511719 163.636719 304.742188 C 163.480469 303.96875 163.367188 303.191406 163.289062 302.410156 C 163.210938 301.625 163.171875 300.839844 163.171875 300.054688 C 163.171875 299.269531 163.210938 298.484375 163.289062 297.699219 C 163.367188 296.917969 163.480469 296.140625 163.636719 295.367188 C 163.789062 294.597656 163.980469 293.835938 164.207031 293.082031 C 164.4375 292.328125 164.699219 291.589844 165 290.863281 C 165.304688 290.136719 165.640625 289.425781 166.007812 288.730469 C 166.378906 288.039062 166.785156 287.363281 167.222656 286.710938 C 167.660156 286.054688 168.125 285.425781 168.625 284.816406 C 169.125 284.207031 169.652344 283.625 170.207031 283.070312 C 170.765625 282.511719 171.347656 281.984375 171.957031 281.484375 C 172.5625 280.988281 173.195312 280.519531 173.847656 280.082031 C 174.503906 279.644531 175.175781 279.242188 175.871094 278.871094 C 176.566406 278.5 177.273438 278.164062 178.003906 277.863281 C 178.730469 277.5625 179.46875 277.296875 180.222656 277.066406 C 180.972656 276.839844 181.738281 276.648438 182.507812 276.496094 C 183.28125 276.339844 184.058594 276.226562 184.839844 276.148438 C 185.621094 276.074219 186.40625 276.035156 187.195312 276.035156 C 187.980469 276.035156 188.765625 276.074219 189.550781 276.148438 C 190.332031 276.226562 191.109375 276.34375 191.878906 276.496094 C 192.652344 276.648438 193.414062 276.839844 194.167969 277.066406 C 194.921875 277.296875 195.660156 277.5625 196.386719 277.863281 C 197.113281 278.164062 197.824219 278.5 198.519531 278.871094 C 199.210938 279.242188 199.886719 279.644531 200.539062 280.082031 C 201.195312 280.519531 201.824219 280.988281 202.433594 281.484375 C 203.042969 281.984375 203.625 282.511719 204.179688 283.070312 C 204.734375 283.625 205.265625 284.207031 205.761719 284.816406 C 206.261719 285.425781 206.730469 286.054688 207.167969 286.710938 C 207.605469 287.363281 208.007812 288.039062 208.378906 288.730469 C 208.75 289.425781 209.085938 290.136719 209.386719 290.863281 C 209.6875 291.589844 209.953125 292.328125 210.179688 293.082031 C 210.410156 293.835938 210.601562 294.597656 210.753906 295.367188 C 210.90625 296.140625 211.023438 296.917969 211.101562 297.699219 C 211.175781 298.484375 211.214844 299.269531 211.214844 300.054688 Z M 211.214844 300.054688 " fill-opacity="1" fill-rule="nonzero"/></g></svg>