<svg xmlns="http://www.w3.org/2000/svg" xmlns:xlink="http://www.w3.org/1999/xlink" width="500" zoomAndPan="magnify" viewBox="0 0 375 374.999991" height="500" preserveAspectRatio="xMidYMid meet" version="1.0"><path fill="#ffffff" d="M 54.597656 0 L 325.898438 0 C 352.90625 0 375.03125 22.09375 375.03125 49.132812 L 375.03125 325.867188 C 375.03125 352.875 352.9375 375 325.898438 375 L 49.132812 375 C 22.125 375 0 352.90625 0 325.867188 L 0 54.566406 C 0 24.566406 24.566406 0 54.597656 0 Z M 92.46875 94.789062 L 155.640625 94.789062 L 188.476562 151.855469 L 220.367188 94.789062 L 282.777344 94.789062 L 225.1875 184.601562 L 288.238281 280.210938 L 223.753906 280.210938 L 187.378906 220.640625 L 150.726562 280.210938 L 86.761719 280.210938 L 150.695312 183.5625 Z M 92.46875 94.789062 " fill-opacity="1" fill-rule="evenodd"/></svg>